%FSLAX34Y34*%
%MOMM*%
%LNSILK_TOP*%
G71*
G01*
%ADD10C,0.200*%
%ADD11C,0.100*%
%ADD12C,0.111*%
%ADD13C,0.150*%
%ADD14C,0.133*%
%LPD*%
G54D10*
X180350Y-68100D02*
X180350Y-128100D01*
X360350Y-128100D01*
X360350Y-68100D01*
X180350Y-68100D01*
G54D10*
X263650Y-98100D02*
X206550Y-98100D01*
G54D10*
X333550Y-98100D02*
X276450Y-98100D01*
G54D10*
X263650Y-82200D02*
X263650Y-114000D01*
G54D10*
X276450Y-82200D02*
X276450Y-114000D01*
G54D10*
X255050Y-164875D02*
X255050Y-139475D01*
X183450Y-139475D01*
X183450Y-164875D01*
X255050Y-164875D01*
G54D10*
X220850Y-160175D02*
X220850Y-144175D01*
G54D10*
X217650Y-160175D02*
X217650Y-144175D01*
G54D10*
X233550Y-152175D02*
X220850Y-152175D01*
G54D10*
X217650Y-152175D02*
X204950Y-152175D01*
G54D11*
X118126Y-254518D02*
X111826Y-248218D01*
X99026Y-248218D01*
X92726Y-254518D01*
X92726Y-267318D01*
X99026Y-273618D01*
X111826Y-273618D01*
X118126Y-267318D01*
X118126Y-254518D01*
G54D11*
X92726Y-254518D02*
X86426Y-248218D01*
X73626Y-248218D01*
X67326Y-254518D01*
X67326Y-267318D01*
X73626Y-273618D01*
X86426Y-273618D01*
X92726Y-267318D01*
X92726Y-254518D01*
G54D11*
X67326Y-254518D02*
X61026Y-248218D01*
X48226Y-248218D01*
X41926Y-254518D01*
X41926Y-267318D01*
X48226Y-273618D01*
X61026Y-273618D01*
X67326Y-267318D01*
X67326Y-254518D01*
G54D10*
X301850Y-171200D02*
X301850Y-152200D01*
X339850Y-152200D01*
X339850Y-171200D01*
X301850Y-171200D01*
G54D10*
X301750Y-161700D02*
X281150Y-161700D01*
G54D10*
X360550Y-161700D02*
X339950Y-161700D01*
G54D12*
X236382Y-58184D02*
X239715Y-54851D01*
X239715Y-63740D01*
G54D12*
X247492Y-56518D02*
X247492Y-62073D01*
X246826Y-63184D01*
X245492Y-63740D01*
X244159Y-63740D01*
X242826Y-63184D01*
X242159Y-62073D01*
X242159Y-56518D01*
X242826Y-55407D01*
X244159Y-54851D01*
X245492Y-54851D01*
X246826Y-55407D01*
X247492Y-56518D01*
G54D12*
X255269Y-56518D02*
X255269Y-62073D01*
X254603Y-63184D01*
X253269Y-63740D01*
X251936Y-63740D01*
X250603Y-63184D01*
X249936Y-62073D01*
X249936Y-56518D01*
X250603Y-55407D01*
X251936Y-54851D01*
X253269Y-54851D01*
X254603Y-55407D01*
X255269Y-56518D01*
G54D12*
X257713Y-63740D02*
X257713Y-58740D01*
G54D12*
X257713Y-59851D02*
X258380Y-59073D01*
X259713Y-58740D01*
X261046Y-59073D01*
X261713Y-59851D01*
X261713Y-63740D01*
G54D12*
X264157Y-63740D02*
X264157Y-54851D01*
X268824Y-54851D01*
G54D12*
X264157Y-59296D02*
X268824Y-59296D01*
G54D12*
X271268Y-63740D02*
X276601Y-54851D01*
G54D12*
X283045Y-63740D02*
X283045Y-54851D01*
X279045Y-60407D01*
X279045Y-61518D01*
X284378Y-61518D01*
G54D12*
X292155Y-56518D02*
X292155Y-62073D01*
X291489Y-63184D01*
X290155Y-63740D01*
X288822Y-63740D01*
X287489Y-63184D01*
X286822Y-62073D01*
X286822Y-56518D01*
X287489Y-55407D01*
X288822Y-54851D01*
X290155Y-54851D01*
X291489Y-55407D01*
X292155Y-56518D01*
G54D12*
X299932Y-56518D02*
X299932Y-62073D01*
X299266Y-63184D01*
X297932Y-63740D01*
X296599Y-63740D01*
X295266Y-63184D01*
X294599Y-62073D01*
X294599Y-56518D01*
X295266Y-55407D01*
X296599Y-54851D01*
X297932Y-54851D01*
X299266Y-55407D01*
X299932Y-56518D01*
G54D12*
X302376Y-54851D02*
X305709Y-63740D01*
X309043Y-54851D01*
G54D12*
X106469Y-151095D02*
X109802Y-147762D01*
X109802Y-156650D01*
G54D12*
X117579Y-156650D02*
X112246Y-156650D01*
X112246Y-156095D01*
X112912Y-154984D01*
X116912Y-151650D01*
X117579Y-150539D01*
X117579Y-149428D01*
X116912Y-148317D01*
X115579Y-147762D01*
X114246Y-147762D01*
X112912Y-148317D01*
X112246Y-149428D01*
G54D12*
X125356Y-149428D02*
X125356Y-154984D01*
X124689Y-156095D01*
X123356Y-156650D01*
X122023Y-156650D01*
X120689Y-156095D01*
X120023Y-154984D01*
X120023Y-149428D01*
X120689Y-148317D01*
X122023Y-147762D01*
X123356Y-147762D01*
X124689Y-148317D01*
X125356Y-149428D01*
G54D12*
X127800Y-151650D02*
X127800Y-158873D01*
G54D12*
X127800Y-154984D02*
X128466Y-156428D01*
X129800Y-156650D01*
X131133Y-156428D01*
X131800Y-155317D01*
X131800Y-153095D01*
X131133Y-151984D01*
X129800Y-151650D01*
X128466Y-151984D01*
X127800Y-153317D01*
G54D12*
X134244Y-156650D02*
X134244Y-147762D01*
X138910Y-147762D01*
G54D12*
X134244Y-152206D02*
X138910Y-152206D01*
G54D12*
X141355Y-156650D02*
X146688Y-147762D01*
G54D12*
X153132Y-156650D02*
X153132Y-147762D01*
X149132Y-153317D01*
X149132Y-154428D01*
X154465Y-154428D01*
G54D12*
X162242Y-149428D02*
X162242Y-154984D01*
X161575Y-156095D01*
X160242Y-156650D01*
X158909Y-156650D01*
X157575Y-156095D01*
X156909Y-154984D01*
X156909Y-149428D01*
X157575Y-148317D01*
X158909Y-147762D01*
X160242Y-147762D01*
X161575Y-148317D01*
X162242Y-149428D01*
G54D12*
X170019Y-149428D02*
X170019Y-154984D01*
X169352Y-156095D01*
X168019Y-156650D01*
X166686Y-156650D01*
X165352Y-156095D01*
X164686Y-154984D01*
X164686Y-149428D01*
X165352Y-148317D01*
X166686Y-147762D01*
X168019Y-147762D01*
X169352Y-148317D01*
X170019Y-149428D01*
G54D12*
X172463Y-147762D02*
X175796Y-156650D01*
X179129Y-147762D01*
G54D12*
X308731Y-138395D02*
X312064Y-135062D01*
X312064Y-143951D01*
G54D12*
X319841Y-136729D02*
X319841Y-142284D01*
X319175Y-143395D01*
X317841Y-143951D01*
X316508Y-143951D01*
X315175Y-143395D01*
X314508Y-142284D01*
X314508Y-136729D01*
X315175Y-135618D01*
X316508Y-135062D01*
X317841Y-135062D01*
X319175Y-135618D01*
X319841Y-136729D01*
G54D12*
X327618Y-136729D02*
X327618Y-142284D01*
X326952Y-143395D01*
X325618Y-143951D01*
X324285Y-143951D01*
X322952Y-143395D01*
X322285Y-142284D01*
X322285Y-136729D01*
X322952Y-135618D01*
X324285Y-135062D01*
X325618Y-135062D01*
X326952Y-135618D01*
X327618Y-136729D01*
G54D12*
X330062Y-143951D02*
X330062Y-135062D01*
G54D12*
X332062Y-140618D02*
X334062Y-143951D01*
G54D12*
X330062Y-141729D02*
X334062Y-138951D01*
G54D10*
X259850Y-195800D02*
X259850Y-178400D01*
X229450Y-178400D01*
X229450Y-195800D01*
X259850Y-195800D01*
G36*
X259750Y-195700D02*
X259750Y-179000D01*
X252550Y-179000D01*
X252550Y-195700D01*
X259750Y-195700D01*
G37*
G54D10*
X259750Y-195700D02*
X259750Y-179000D01*
X252550Y-179000D01*
X252550Y-195700D01*
X259750Y-195700D01*
G54D10*
X283550Y-187100D02*
X259750Y-187100D01*
G54D10*
X229550Y-187100D02*
X205750Y-187100D01*
G54D10*
X259850Y-221200D02*
X259850Y-203800D01*
X229450Y-203800D01*
X229450Y-221200D01*
X259850Y-221200D01*
G36*
X259750Y-221100D02*
X259750Y-204400D01*
X252550Y-204400D01*
X252550Y-221100D01*
X259750Y-221100D01*
G37*
G54D10*
X259750Y-221100D02*
X259750Y-204400D01*
X252550Y-204400D01*
X252550Y-221100D01*
X259750Y-221100D01*
G54D10*
X283550Y-212500D02*
X259750Y-212500D01*
G54D10*
X229550Y-212500D02*
X205750Y-212500D01*
G54D10*
X105426Y-260918D02*
X105426Y-235518D01*
G54D10*
X54626Y-260918D02*
X54626Y-235518D01*
G54D10*
X70501Y-235518D02*
X54626Y-235518D01*
G54D10*
X105426Y-235518D02*
X89551Y-235518D01*
G54D10*
X225650Y-247400D02*
X225650Y-228400D01*
X263650Y-228400D01*
X263650Y-247400D01*
X225650Y-247400D01*
G54D10*
X225550Y-237900D02*
X204950Y-237900D01*
G54D10*
X284350Y-237900D02*
X263750Y-237900D01*
G54D10*
X409800Y-107700D02*
X409800Y-88700D01*
X447800Y-88700D01*
X447800Y-107700D01*
X409800Y-107700D01*
G54D10*
X409700Y-98200D02*
X389100Y-98200D01*
G54D10*
X468500Y-98200D02*
X447900Y-98200D01*
G54D10*
X409800Y-75950D02*
X409800Y-56950D01*
X447800Y-56950D01*
X447800Y-75950D01*
X409800Y-75950D01*
G54D10*
X409700Y-66450D02*
X389100Y-66450D01*
G54D10*
X468500Y-66450D02*
X447900Y-66450D01*
G54D12*
X150988Y-182974D02*
X156321Y-182974D01*
X150988Y-191862D01*
X156321Y-191862D01*
G54D12*
X158764Y-191862D02*
X158764Y-182974D01*
X163431Y-182974D01*
G54D12*
X158764Y-187418D02*
X163431Y-187418D01*
G54D12*
X171209Y-182974D02*
X165876Y-182974D01*
X165876Y-186862D01*
X166542Y-186862D01*
X167876Y-186307D01*
X169209Y-186307D01*
X170542Y-186862D01*
X171209Y-187974D01*
X171209Y-190196D01*
X170542Y-191307D01*
X169209Y-191862D01*
X167876Y-191862D01*
X166542Y-191307D01*
X165876Y-190196D01*
G54D12*
X174986Y-191862D02*
X174986Y-192974D01*
X174319Y-194085D01*
X173652Y-194085D01*
G54D12*
X177430Y-186307D02*
X180763Y-182974D01*
X180763Y-191862D01*
G54D12*
X161939Y-235356D02*
X165272Y-232023D01*
X165272Y-240912D01*
G54D12*
X167716Y-240912D02*
X167716Y-232023D01*
X171049Y-237578D01*
X174382Y-232023D01*
X174382Y-240912D01*
G54D12*
X387525Y-83119D02*
X390858Y-79786D01*
X390858Y-88675D01*
G54D12*
X393302Y-88675D02*
X393302Y-79786D01*
X396635Y-85342D01*
X399969Y-79786D01*
X399969Y-88675D01*
G54D12*
X388521Y-55505D02*
X388521Y-46616D01*
X384521Y-52172D01*
X384521Y-53283D01*
X389854Y-53283D01*
G54D12*
X393631Y-55505D02*
X393631Y-56616D01*
X392964Y-57727D01*
X392298Y-57727D01*
G54D12*
X396075Y-46616D02*
X401408Y-46616D01*
X400741Y-47727D01*
X399408Y-49394D01*
X398075Y-51616D01*
X397408Y-53283D01*
X397408Y-55505D01*
G54D12*
X403852Y-55505D02*
X403852Y-46616D01*
G54D12*
X405852Y-52172D02*
X407852Y-55505D01*
G54D12*
X403852Y-53283D02*
X407852Y-50505D01*
G54D10*
X416050Y-203000D02*
X416050Y-222000D01*
X378050Y-222000D01*
X378050Y-203000D01*
X416050Y-203000D01*
G54D10*
X416150Y-212500D02*
X436750Y-212500D01*
G54D10*
X357350Y-212500D02*
X377950Y-212500D01*
G54D10*
G75*
G01X397050Y-187100D02*
G03X397050Y-136300I0J25400D01*
G01*
G54D10*
X397050Y-136300D02*
X397050Y-187100D01*
G54D12*
X392647Y-236744D02*
X392647Y-227855D01*
X388647Y-233411D01*
X388647Y-234522D01*
X393981Y-234522D01*
G54D12*
X396424Y-227855D02*
X401758Y-227855D01*
X401091Y-228966D01*
X399758Y-230633D01*
X398424Y-232855D01*
X397758Y-234522D01*
X397758Y-236744D01*
G54D12*
X404201Y-236744D02*
X404201Y-227855D01*
G54D12*
X406201Y-233411D02*
X408201Y-236744D01*
G54D12*
X404201Y-234522D02*
X408201Y-231744D01*
G54D12*
X425701Y-146385D02*
X434590Y-146385D01*
X434590Y-149718D01*
X434034Y-151052D01*
X432923Y-151718D01*
X431812Y-151718D01*
X430701Y-151052D01*
X430145Y-149718D01*
X429590Y-151052D01*
X428479Y-151718D01*
X427368Y-151718D01*
X426257Y-151052D01*
X425701Y-149718D01*
X425701Y-146385D01*
G54D12*
X430145Y-146385D02*
X430145Y-149718D01*
G54D12*
X427368Y-154162D02*
X426257Y-154829D01*
X425701Y-156162D01*
X425701Y-157495D01*
X426257Y-158829D01*
X427368Y-159495D01*
X428479Y-159495D01*
X429590Y-158829D01*
X430145Y-157495D01*
X430145Y-156162D01*
X430701Y-154829D01*
X431812Y-154162D01*
X432923Y-154162D01*
X434034Y-154829D01*
X434590Y-156162D01*
X434590Y-157495D01*
X434034Y-158829D01*
X432923Y-159495D01*
G54D12*
X431257Y-161939D02*
X434590Y-165272D01*
X425701Y-165272D01*
G54D12*
X434590Y-167716D02*
X434590Y-173049D01*
X433479Y-172383D01*
X431812Y-171049D01*
X429590Y-169716D01*
X427923Y-169049D01*
X425701Y-169049D01*
G54D12*
X432923Y-180826D02*
X427368Y-180826D01*
X426257Y-180160D01*
X425701Y-178826D01*
X425701Y-177493D01*
X426257Y-176160D01*
X427368Y-175493D01*
X432923Y-175493D01*
X434034Y-176160D01*
X434590Y-177493D01*
X434590Y-178826D01*
X434034Y-180160D01*
X432923Y-180826D01*
G54D10*
X447850Y-422925D02*
X473250Y-422925D01*
X473250Y-351325D01*
X447850Y-351325D01*
X447850Y-422925D01*
G54D10*
X452550Y-388725D02*
X468550Y-388725D01*
G54D10*
X452550Y-385525D02*
X468550Y-385525D01*
G54D10*
X460550Y-401425D02*
X460550Y-388725D01*
G54D10*
X460550Y-385525D02*
X460550Y-372825D01*
G54D12*
X425625Y-432369D02*
X428958Y-429036D01*
X428958Y-437925D01*
G54D12*
X436735Y-430703D02*
X436735Y-436258D01*
X436069Y-437369D01*
X434735Y-437925D01*
X433402Y-437925D01*
X432069Y-437369D01*
X431402Y-436258D01*
X431402Y-430703D01*
X432069Y-429592D01*
X433402Y-429036D01*
X434735Y-429036D01*
X436069Y-429592D01*
X436735Y-430703D01*
G54D12*
X444512Y-430703D02*
X444512Y-436258D01*
X443846Y-437369D01*
X442512Y-437925D01*
X441179Y-437925D01*
X439846Y-437369D01*
X439179Y-436258D01*
X439179Y-430703D01*
X439846Y-429592D01*
X441179Y-429036D01*
X442512Y-429036D01*
X443846Y-429592D01*
X444512Y-430703D01*
G54D12*
X446956Y-437925D02*
X446956Y-432925D01*
G54D12*
X446956Y-434036D02*
X447623Y-433258D01*
X448956Y-432925D01*
X450289Y-433258D01*
X450956Y-434036D01*
X450956Y-437925D01*
G54D12*
X453400Y-437925D02*
X453400Y-429036D01*
X458067Y-429036D01*
G54D12*
X453400Y-433481D02*
X458067Y-433481D01*
G54D12*
X460511Y-437925D02*
X465844Y-429036D01*
G54D12*
X473621Y-430703D02*
X472955Y-429592D01*
X471621Y-429036D01*
X470288Y-429036D01*
X468955Y-429592D01*
X468288Y-430703D01*
X468288Y-433481D01*
X468288Y-434036D01*
X470288Y-432925D01*
X471621Y-432925D01*
X472955Y-433481D01*
X473621Y-434592D01*
X473621Y-436258D01*
X472955Y-437369D01*
X471621Y-437925D01*
X470288Y-437925D01*
X468955Y-437369D01*
X468288Y-436258D01*
X468288Y-433481D01*
G54D12*
X476065Y-430703D02*
X476732Y-429592D01*
X478065Y-429036D01*
X479398Y-429036D01*
X480732Y-429592D01*
X481398Y-430703D01*
X481398Y-431814D01*
X480732Y-432925D01*
X479398Y-433481D01*
X480732Y-434036D01*
X481398Y-435147D01*
X481398Y-436258D01*
X480732Y-437369D01*
X479398Y-437925D01*
X478065Y-437925D01*
X476732Y-437369D01*
X476065Y-436258D01*
G54D12*
X483842Y-429036D02*
X487175Y-437925D01*
X490509Y-429036D01*
G54D10*
X409750Y-260100D02*
X409750Y-284000D01*
X419250Y-284000D01*
X419250Y-293400D01*
X409750Y-293400D01*
X409750Y-317300D01*
X511350Y-317300D01*
X511350Y-260100D01*
X409750Y-260100D01*
G36*
X409650Y-317300D02*
X409650Y-304600D01*
X422450Y-317300D01*
X409650Y-317300D01*
G37*
G54D10*
X409650Y-317300D02*
X409650Y-304600D01*
X422450Y-317300D01*
X409650Y-317300D01*
G54D10*
X409750Y-368100D02*
X412950Y-368100D01*
X412950Y-387100D01*
X409750Y-387100D01*
X409750Y-368100D01*
G54D10*
G75*
G01X438350Y-377600D02*
G03X438350Y-377600I-28600J0D01*
G01*
G54D10*
X422450Y-393500D02*
X422450Y-399800D01*
G54D10*
X419250Y-396700D02*
X425650Y-396700D01*
G54D10*
X406550Y-368100D02*
X406550Y-387100D01*
G54D10*
X406550Y-320400D02*
X387550Y-320400D01*
X387550Y-282400D01*
X406550Y-282400D01*
X406550Y-320400D01*
G54D10*
X397050Y-320500D02*
X397050Y-341100D01*
G54D10*
X397050Y-261700D02*
X397050Y-282300D01*
G54D10*
X358950Y-311800D02*
X384350Y-311800D01*
X384350Y-240200D01*
X358950Y-240200D01*
X358950Y-311800D01*
G54D10*
X363650Y-277600D02*
X379650Y-277600D01*
G54D10*
X363650Y-274400D02*
X379650Y-274400D01*
G54D10*
X371650Y-290300D02*
X371650Y-277600D01*
G54D10*
X371650Y-274400D02*
X371650Y-261700D01*
G54D12*
X348045Y-242297D02*
X351378Y-245630D01*
X342489Y-245630D01*
G54D12*
X349711Y-253407D02*
X344156Y-253407D01*
X343045Y-252741D01*
X342489Y-251407D01*
X342489Y-250074D01*
X343045Y-248741D01*
X344156Y-248074D01*
X349711Y-248074D01*
X350822Y-248741D01*
X351378Y-250074D01*
X351378Y-251407D01*
X350822Y-252741D01*
X349711Y-253407D01*
G54D12*
X349711Y-261184D02*
X344156Y-261184D01*
X343045Y-260518D01*
X342489Y-259184D01*
X342489Y-257851D01*
X343045Y-256518D01*
X344156Y-255851D01*
X349711Y-255851D01*
X350822Y-256518D01*
X351378Y-257851D01*
X351378Y-259184D01*
X350822Y-260518D01*
X349711Y-261184D01*
G54D12*
X342489Y-263628D02*
X347489Y-263628D01*
G54D12*
X346378Y-263628D02*
X347156Y-264295D01*
X347489Y-265628D01*
X347156Y-266961D01*
X346378Y-267628D01*
X342489Y-267628D01*
G54D12*
X342489Y-270072D02*
X351378Y-270072D01*
X351378Y-274739D01*
G54D12*
X346933Y-270072D02*
X346933Y-274739D01*
G54D12*
X342489Y-277183D02*
X351378Y-282516D01*
G54D12*
X349711Y-290293D02*
X350822Y-289627D01*
X351378Y-288293D01*
X351378Y-286960D01*
X350822Y-285627D01*
X349711Y-284960D01*
X346933Y-284960D01*
X346378Y-284960D01*
X347489Y-286960D01*
X347489Y-288293D01*
X346933Y-289627D01*
X345822Y-290293D01*
X344156Y-290293D01*
X343045Y-289627D01*
X342489Y-288293D01*
X342489Y-286960D01*
X343045Y-285627D01*
X344156Y-284960D01*
X346933Y-284960D01*
G54D12*
X349711Y-292737D02*
X350822Y-293404D01*
X351378Y-294737D01*
X351378Y-296070D01*
X350822Y-297404D01*
X349711Y-298070D01*
X348600Y-298070D01*
X347489Y-297404D01*
X346933Y-296070D01*
X346378Y-297404D01*
X345267Y-298070D01*
X344156Y-298070D01*
X343045Y-297404D01*
X342489Y-296070D01*
X342489Y-294737D01*
X343045Y-293404D01*
X344156Y-292737D01*
G54D12*
X351378Y-300514D02*
X342489Y-303847D01*
X351378Y-307181D01*
G54D12*
X384350Y-414907D02*
X387683Y-411574D01*
X387683Y-420462D01*
G54D12*
X395460Y-413240D02*
X395460Y-418796D01*
X394794Y-419907D01*
X393460Y-420462D01*
X392127Y-420462D01*
X390794Y-419907D01*
X390127Y-418796D01*
X390127Y-413240D01*
X390794Y-412129D01*
X392127Y-411574D01*
X393460Y-411574D01*
X394794Y-412129D01*
X395460Y-413240D01*
G54D12*
X397904Y-415462D02*
X397904Y-422685D01*
G54D12*
X401904Y-415462D02*
X401904Y-420462D01*
G54D12*
X401904Y-419351D02*
X401237Y-420240D01*
X399904Y-420462D01*
X398571Y-420240D01*
X397904Y-419351D01*
X397904Y-415462D01*
G54D12*
X404348Y-420462D02*
X404348Y-411574D01*
X409015Y-411574D01*
G54D12*
X404348Y-416018D02*
X409015Y-416018D01*
G54D12*
X411459Y-420462D02*
X416792Y-411574D01*
G54D12*
X419236Y-414907D02*
X422569Y-411574D01*
X422569Y-420462D01*
G54D12*
X430346Y-413240D02*
X429680Y-412129D01*
X428346Y-411574D01*
X427013Y-411574D01*
X425680Y-412129D01*
X425013Y-413240D01*
X425013Y-416018D01*
X425013Y-416574D01*
X427013Y-415462D01*
X428346Y-415462D01*
X429680Y-416018D01*
X430346Y-417129D01*
X430346Y-418796D01*
X429680Y-419907D01*
X428346Y-420462D01*
X427013Y-420462D01*
X425680Y-419907D01*
X425013Y-418796D01*
X425013Y-416018D01*
G54D12*
X432790Y-411574D02*
X436123Y-420462D01*
X439457Y-411574D01*
G54D12*
X365300Y-327594D02*
X368633Y-324261D01*
X368633Y-333150D01*
G54D12*
X372410Y-333150D02*
X372410Y-334261D01*
X371744Y-335372D01*
X371077Y-335372D01*
G54D12*
X378187Y-328706D02*
X376854Y-328706D01*
X375521Y-328150D01*
X374854Y-327039D01*
X374854Y-325928D01*
X375521Y-324817D01*
X376854Y-324261D01*
X378187Y-324261D01*
X379521Y-324817D01*
X380187Y-325928D01*
X380187Y-327039D01*
X379521Y-328150D01*
X378187Y-328706D01*
X379521Y-329261D01*
X380187Y-330372D01*
X380187Y-331483D01*
X379521Y-332594D01*
X378187Y-333150D01*
X376854Y-333150D01*
X375521Y-332594D01*
X374854Y-331483D01*
X374854Y-330372D01*
X375521Y-329261D01*
X376854Y-328706D01*
G54D12*
X382631Y-333150D02*
X382631Y-324261D01*
G54D12*
X384631Y-329817D02*
X386631Y-333150D01*
G54D12*
X382631Y-330928D02*
X386631Y-328150D01*
G54D10*
X485950Y-235600D02*
X511350Y-235600D01*
X511350Y-164000D01*
X485950Y-164000D01*
X485950Y-235600D01*
G54D10*
X490650Y-201400D02*
X506650Y-201400D01*
G54D10*
X490650Y-198200D02*
X506650Y-198200D01*
G54D10*
X498650Y-214100D02*
X498650Y-201400D01*
G54D10*
X498650Y-198200D02*
X498650Y-185500D01*
G54D12*
X469489Y-173272D02*
X478378Y-173272D01*
X472822Y-169272D01*
X471711Y-169272D01*
X471711Y-174605D01*
G54D12*
X478378Y-177049D02*
X478378Y-182382D01*
X477267Y-181716D01*
X475600Y-180382D01*
X473378Y-179049D01*
X471711Y-178382D01*
X469489Y-178382D01*
G54D12*
X469489Y-184826D02*
X474489Y-184826D01*
G54D12*
X473378Y-184826D02*
X474156Y-185493D01*
X474489Y-186826D01*
X474156Y-188159D01*
X473378Y-188826D01*
X469489Y-188826D01*
G54D12*
X469489Y-191270D02*
X478378Y-191270D01*
X478378Y-195937D01*
G54D12*
X473933Y-191270D02*
X473933Y-195937D01*
G54D12*
X469489Y-198381D02*
X478378Y-203714D01*
G54D12*
X476711Y-211491D02*
X477822Y-210825D01*
X478378Y-209491D01*
X478378Y-208158D01*
X477822Y-206825D01*
X476711Y-206158D01*
X473933Y-206158D01*
X473378Y-206158D01*
X474489Y-208158D01*
X474489Y-209491D01*
X473933Y-210825D01*
X472822Y-211491D01*
X471156Y-211491D01*
X470045Y-210825D01*
X469489Y-209491D01*
X469489Y-208158D01*
X470045Y-206825D01*
X471156Y-206158D01*
X473933Y-206158D01*
G54D12*
X476711Y-213935D02*
X477822Y-214602D01*
X478378Y-215935D01*
X478378Y-217268D01*
X477822Y-218602D01*
X476711Y-219268D01*
X475600Y-219268D01*
X474489Y-218602D01*
X473933Y-217268D01*
X473378Y-218602D01*
X472267Y-219268D01*
X471156Y-219268D01*
X470045Y-218602D01*
X469489Y-217268D01*
X469489Y-215935D01*
X470045Y-214602D01*
X471156Y-213935D01*
G54D12*
X478378Y-221712D02*
X469489Y-225045D01*
X478378Y-228379D01*
G54D10*
X533550Y-295000D02*
X514550Y-295000D01*
X514550Y-257000D01*
X533550Y-257000D01*
X533550Y-295000D01*
G54D10*
X524050Y-295100D02*
X524050Y-315700D01*
G54D10*
X524050Y-236300D02*
X524050Y-256900D01*
G54D12*
X543893Y-257744D02*
X547226Y-261077D01*
X538338Y-261077D01*
G54D12*
X545560Y-268854D02*
X540004Y-268854D01*
X538893Y-268187D01*
X538338Y-266854D01*
X538338Y-265521D01*
X538893Y-264187D01*
X540004Y-263521D01*
X545560Y-263521D01*
X546671Y-264187D01*
X547226Y-265521D01*
X547226Y-266854D01*
X546671Y-268187D01*
X545560Y-268854D01*
G54D12*
X545560Y-279208D02*
X540004Y-279208D01*
X538893Y-278541D01*
X538338Y-277208D01*
X538338Y-275875D01*
X538893Y-274541D01*
X540004Y-273875D01*
X545560Y-273875D01*
X546671Y-274541D01*
X547226Y-275875D01*
X547226Y-277208D01*
X546671Y-278541D01*
X545560Y-279208D01*
G54D12*
X538338Y-281652D02*
X547226Y-281652D01*
G54D12*
X541893Y-281652D02*
X543004Y-282318D01*
X543338Y-283652D01*
X543004Y-284985D01*
X541893Y-285652D01*
X538338Y-285652D01*
G54D12*
X538338Y-288096D02*
X543338Y-288096D01*
G54D12*
X542449Y-288096D02*
X543338Y-289429D01*
X543004Y-290762D01*
X542226Y-291429D01*
X538338Y-291429D01*
G54D12*
X542449Y-291429D02*
X543338Y-292762D01*
X543004Y-294096D01*
X542226Y-294762D01*
X538338Y-294762D01*
G54D12*
X441500Y-279811D02*
X441500Y-288700D01*
X446167Y-288700D01*
G54D12*
X448611Y-288700D02*
X448611Y-279811D01*
X451944Y-285367D01*
X455278Y-279811D01*
X455278Y-288700D01*
G54D12*
X457722Y-281478D02*
X458389Y-280367D01*
X459722Y-279811D01*
X461055Y-279811D01*
X462389Y-280367D01*
X463055Y-281478D01*
X463055Y-282589D01*
X462389Y-283700D01*
X461055Y-284256D01*
X462389Y-284811D01*
X463055Y-285922D01*
X463055Y-287033D01*
X462389Y-288144D01*
X461055Y-288700D01*
X459722Y-288700D01*
X458389Y-288144D01*
X457722Y-287033D01*
G54D12*
X468832Y-284256D02*
X467499Y-284256D01*
X466166Y-283700D01*
X465499Y-282589D01*
X465499Y-281478D01*
X466166Y-280367D01*
X467499Y-279811D01*
X468832Y-279811D01*
X470166Y-280367D01*
X470832Y-281478D01*
X470832Y-282589D01*
X470166Y-283700D01*
X468832Y-284256D01*
X470166Y-284811D01*
X470832Y-285922D01*
X470832Y-287033D01*
X470166Y-288144D01*
X468832Y-288700D01*
X467499Y-288700D01*
X466166Y-288144D01*
X465499Y-287033D01*
X465499Y-285922D01*
X466166Y-284811D01*
X467499Y-284256D01*
G54D12*
X478609Y-281478D02*
X477943Y-280367D01*
X476609Y-279811D01*
X475276Y-279811D01*
X473943Y-280367D01*
X473276Y-281478D01*
X473276Y-284256D01*
X473276Y-284811D01*
X475276Y-283700D01*
X476609Y-283700D01*
X477943Y-284256D01*
X478609Y-285367D01*
X478609Y-287033D01*
X477943Y-288144D01*
X476609Y-288700D01*
X475276Y-288700D01*
X473943Y-288144D01*
X473276Y-287033D01*
X473276Y-284256D01*
G54D10*
X511350Y-368100D02*
X514550Y-368100D01*
X514550Y-387100D01*
X511350Y-387100D01*
X511350Y-368100D01*
G54D10*
G75*
G01X539950Y-377600D02*
G03X539950Y-377600I-28600J0D01*
G01*
G54D10*
X524050Y-393500D02*
X524050Y-399800D01*
G54D10*
X520850Y-396700D02*
X527250Y-396700D01*
G54D10*
X508150Y-368100D02*
X508150Y-387100D01*
G54D12*
X485950Y-340294D02*
X489283Y-336961D01*
X489283Y-345850D01*
G54D12*
X497060Y-338628D02*
X497060Y-344183D01*
X496394Y-345294D01*
X495060Y-345850D01*
X493727Y-345850D01*
X492394Y-345294D01*
X491727Y-344183D01*
X491727Y-338628D01*
X492394Y-337517D01*
X493727Y-336961D01*
X495060Y-336961D01*
X496394Y-337517D01*
X497060Y-338628D01*
G54D12*
X499504Y-340850D02*
X499504Y-348072D01*
G54D12*
X503504Y-340850D02*
X503504Y-345850D01*
G54D12*
X503504Y-344739D02*
X502837Y-345628D01*
X501504Y-345850D01*
X500171Y-345628D01*
X499504Y-344739D01*
X499504Y-340850D01*
G54D12*
X505948Y-345850D02*
X505948Y-336961D01*
X510615Y-336961D01*
G54D12*
X505948Y-341406D02*
X510615Y-341406D01*
G54D12*
X513059Y-345850D02*
X518392Y-336961D01*
G54D12*
X520836Y-340294D02*
X524169Y-336961D01*
X524169Y-345850D01*
G54D12*
X531946Y-338628D02*
X531280Y-337517D01*
X529946Y-336961D01*
X528613Y-336961D01*
X527280Y-337517D01*
X526613Y-338628D01*
X526613Y-341406D01*
X526613Y-341961D01*
X528613Y-340850D01*
X529946Y-340850D01*
X531280Y-341406D01*
X531946Y-342517D01*
X531946Y-344183D01*
X531280Y-345294D01*
X529946Y-345850D01*
X528613Y-345850D01*
X527280Y-345294D01*
X526613Y-344183D01*
X526613Y-341406D01*
G54D12*
X534390Y-336961D02*
X537723Y-345850D01*
X541057Y-336961D01*
G54D10*
X543694Y-111062D02*
X543694Y-103162D01*
G54D10*
X543694Y-120562D02*
X543694Y-128562D01*
G54D10*
X530994Y-114362D02*
X556394Y-114362D01*
X556394Y-120662D01*
X530994Y-120662D01*
X530994Y-114362D01*
G54D10*
X522994Y-141262D02*
X516694Y-141262D01*
G54D10*
X519794Y-138062D02*
X519794Y-144462D01*
G54D10*
X556394Y-111162D02*
X530994Y-111162D01*
G54D10*
G75*
G01X593694Y-115662D02*
G03X593694Y-115662I-50000J0D01*
G01*
G54D11*
X558131Y-191069D02*
X551831Y-197369D01*
X551831Y-210169D01*
X558131Y-216469D01*
X570931Y-216469D01*
X577231Y-210169D01*
X577231Y-197369D01*
X570931Y-191069D01*
X558131Y-191069D01*
G54D11*
X558131Y-216469D02*
X551831Y-222769D01*
X551831Y-235569D01*
X558131Y-241869D01*
X570931Y-241869D01*
X577231Y-235569D01*
X577231Y-222769D01*
X570931Y-216469D01*
X558131Y-216469D01*
G54D12*
X546433Y-195831D02*
X537544Y-195831D01*
X537544Y-200498D01*
G54D12*
X539210Y-202942D02*
X538099Y-203609D01*
X537544Y-204942D01*
X537544Y-206276D01*
X538099Y-207609D01*
X539210Y-208276D01*
X540322Y-208276D01*
X541433Y-207609D01*
X541988Y-206276D01*
X541988Y-204942D01*
X542544Y-203609D01*
X543655Y-202942D01*
X544766Y-202942D01*
X545877Y-203609D01*
X546433Y-204942D01*
X546433Y-206276D01*
X545877Y-207609D01*
X544766Y-208276D01*
G54D12*
X541433Y-210719D02*
X541433Y-216053D01*
G54D12*
X543655Y-213386D02*
X539210Y-213386D01*
G54D12*
X546433Y-224406D02*
X537544Y-224406D01*
X537544Y-229073D01*
G54D12*
X539210Y-231517D02*
X538099Y-232184D01*
X537544Y-233517D01*
X537544Y-234851D01*
X538099Y-236184D01*
X539210Y-236851D01*
X540322Y-236851D01*
X541433Y-236184D01*
X541988Y-234851D01*
X541988Y-233517D01*
X542544Y-232184D01*
X543655Y-231517D01*
X544766Y-231517D01*
X545877Y-232184D01*
X546433Y-233517D01*
X546433Y-234851D01*
X545877Y-236184D01*
X544766Y-236851D01*
G54D12*
X541433Y-239294D02*
X541433Y-244628D01*
G54D12*
X515097Y-60100D02*
X509763Y-60100D01*
X509763Y-59545D01*
X510430Y-58434D01*
X514430Y-55100D01*
X515097Y-53989D01*
X515097Y-52878D01*
X514430Y-51767D01*
X513097Y-51211D01*
X511763Y-51211D01*
X510430Y-51767D01*
X509763Y-52878D01*
G54D12*
X522874Y-60100D02*
X517540Y-60100D01*
X517540Y-59545D01*
X518207Y-58434D01*
X522207Y-55100D01*
X522874Y-53989D01*
X522874Y-52878D01*
X522207Y-51767D01*
X520874Y-51211D01*
X519540Y-51211D01*
X518207Y-51767D01*
X517540Y-52878D01*
G54D12*
X530651Y-52878D02*
X530651Y-58434D01*
X529984Y-59545D01*
X528651Y-60100D01*
X527317Y-60100D01*
X525984Y-59545D01*
X525317Y-58434D01*
X525317Y-52878D01*
X525984Y-51767D01*
X527317Y-51211D01*
X528651Y-51211D01*
X529984Y-51767D01*
X530651Y-52878D01*
G54D12*
X533094Y-55100D02*
X533094Y-62322D01*
G54D12*
X537094Y-55100D02*
X537094Y-60100D01*
G54D12*
X537094Y-58989D02*
X536428Y-59878D01*
X535094Y-60100D01*
X533761Y-59878D01*
X533094Y-58989D01*
X533094Y-55100D01*
G54D12*
X539538Y-60100D02*
X539538Y-51211D01*
X544205Y-51211D01*
G54D12*
X539538Y-55656D02*
X544205Y-55656D01*
G54D12*
X546649Y-60100D02*
X551983Y-51211D01*
G54D12*
X554426Y-54545D02*
X557760Y-51211D01*
X557760Y-60100D01*
G54D12*
X565537Y-52878D02*
X564870Y-51767D01*
X563537Y-51211D01*
X562203Y-51211D01*
X560870Y-51767D01*
X560203Y-52878D01*
X560203Y-55656D01*
X560203Y-56211D01*
X562203Y-55100D01*
X563537Y-55100D01*
X564870Y-55656D01*
X565537Y-56767D01*
X565537Y-58434D01*
X564870Y-59545D01*
X563537Y-60100D01*
X562203Y-60100D01*
X560870Y-59545D01*
X560203Y-58434D01*
X560203Y-55656D01*
G54D12*
X567980Y-51211D02*
X571314Y-60100D01*
X574647Y-51211D01*
G54D11*
X41422Y-195059D02*
X47722Y-201359D01*
X60522Y-201359D01*
X66822Y-195059D01*
X66822Y-182259D01*
X60522Y-175959D01*
X47722Y-175959D01*
X41422Y-182259D01*
X41422Y-195059D01*
G54D11*
X66822Y-195059D02*
X73122Y-201359D01*
X85922Y-201359D01*
X92222Y-195059D01*
X92222Y-182259D01*
X85922Y-175959D01*
X73122Y-175959D01*
X66822Y-182259D01*
X66822Y-195059D01*
G54D10*
X136750Y-49756D02*
X136750Y-30756D01*
X174750Y-30756D01*
X174750Y-49756D01*
X136750Y-49756D01*
G54D10*
X136650Y-40256D02*
X116050Y-40256D01*
G54D10*
X195450Y-40256D02*
X174850Y-40256D01*
G54D12*
X144687Y-10643D02*
X145353Y-9532D01*
X146687Y-8976D01*
X148020Y-8976D01*
X149353Y-9532D01*
X150020Y-10643D01*
X150020Y-11754D01*
X149353Y-12865D01*
X148020Y-13421D01*
X149353Y-13976D01*
X150020Y-15087D01*
X150020Y-16198D01*
X149353Y-17310D01*
X148020Y-17865D01*
X146687Y-17865D01*
X145353Y-17310D01*
X144687Y-16198D01*
G54D12*
X153797Y-17865D02*
X153797Y-18976D01*
X153130Y-20087D01*
X152464Y-20087D01*
G54D12*
X156241Y-10643D02*
X156907Y-9532D01*
X158241Y-8976D01*
X159574Y-8976D01*
X160907Y-9532D01*
X161574Y-10643D01*
X161574Y-11754D01*
X160907Y-12865D01*
X159574Y-13421D01*
X160907Y-13976D01*
X161574Y-15087D01*
X161574Y-16198D01*
X160907Y-17310D01*
X159574Y-17865D01*
X158241Y-17865D01*
X156907Y-17310D01*
X156241Y-16198D01*
G54D12*
X164018Y-17865D02*
X164018Y-8976D01*
G54D12*
X166018Y-14532D02*
X168018Y-17865D01*
G54D12*
X164018Y-15643D02*
X168018Y-12865D01*
G54D12*
X41422Y-216520D02*
X46756Y-216520D01*
G54D12*
X44089Y-214298D02*
X44089Y-218742D01*
G54D12*
X49200Y-218742D02*
X49866Y-219853D01*
X51200Y-220409D01*
X52533Y-220409D01*
X53866Y-219853D01*
X54533Y-218742D01*
X54533Y-215965D01*
X54533Y-215409D01*
X52533Y-216520D01*
X51200Y-216520D01*
X49866Y-215965D01*
X49200Y-214853D01*
X49200Y-213187D01*
X49866Y-212076D01*
X51200Y-211520D01*
X52533Y-211520D01*
X53866Y-212076D01*
X54533Y-213187D01*
X54533Y-215965D01*
G54D12*
X56976Y-211520D02*
X60310Y-220409D01*
X63643Y-211520D01*
G54D12*
X66822Y-216520D02*
X72156Y-216520D01*
G54D12*
X74600Y-218742D02*
X75266Y-219853D01*
X76600Y-220409D01*
X77933Y-220409D01*
X79266Y-219853D01*
X79933Y-218742D01*
X79933Y-215965D01*
X79933Y-215409D01*
X77933Y-216520D01*
X76600Y-216520D01*
X75266Y-215965D01*
X74600Y-214853D01*
X74600Y-213187D01*
X75266Y-212076D01*
X76600Y-211520D01*
X77933Y-211520D01*
X79266Y-212076D01*
X79933Y-213187D01*
X79933Y-215965D01*
G54D12*
X82376Y-211520D02*
X85710Y-220409D01*
X89043Y-211520D01*
G54D11*
X92250Y-131487D02*
X85950Y-125187D01*
X73150Y-125187D01*
X66850Y-131487D01*
X66850Y-144287D01*
X73150Y-150587D01*
X85950Y-150587D01*
X92250Y-144287D01*
X92250Y-131487D01*
G54D11*
X66850Y-131487D02*
X60550Y-125187D01*
X47750Y-125187D01*
X41450Y-131487D01*
X41450Y-144287D01*
X47750Y-150587D01*
X60550Y-150587D01*
X66850Y-144287D01*
X66850Y-131487D01*
G54D10*
X54150Y-137887D02*
X54150Y-118837D01*
X66850Y-118837D01*
G54D10*
X79550Y-137887D02*
X79550Y-118837D01*
X73025Y-119062D01*
X66850Y-109312D01*
G54D10*
X66675Y-115887D02*
X66675Y-118662D01*
X66850Y-118837D01*
G54D10*
X89551Y-235518D02*
X89551Y-229218D01*
G54D10*
X70501Y-235518D02*
X70501Y-229218D01*
G54D10*
X80244Y-260918D02*
X80244Y-238294D01*
X64594Y-222644D01*
X67769Y-219468D01*
X61419Y-225818D01*
G54D13*
X219775Y-351475D02*
X379775Y-351475D01*
X379775Y-436475D01*
X219775Y-436475D01*
X219775Y-351475D01*
G54D13*
X269775Y-436475D02*
X329775Y-436475D01*
X329775Y-447475D01*
X269775Y-447475D01*
X269775Y-436475D01*
G54D10*
X156575Y-309740D02*
X156575Y-449740D01*
X6575Y-449740D01*
X6575Y-309740D01*
X156575Y-309740D01*
G54D11*
X91956Y-80474D02*
X85656Y-74174D01*
X72856Y-74174D01*
X66556Y-80474D01*
X66556Y-93274D01*
X72856Y-99574D01*
X85656Y-99574D01*
X91956Y-93274D01*
X91956Y-80474D01*
G54D11*
X66556Y-80474D02*
X60256Y-74174D01*
X47456Y-74174D01*
X41156Y-80474D01*
X41156Y-93274D01*
X47456Y-99574D01*
X60256Y-99574D01*
X66556Y-93274D01*
X66556Y-80474D01*
G54D10*
X72906Y-52049D02*
X72906Y-71099D01*
X63381Y-61574D01*
X72906Y-52049D01*
G54D10*
X63381Y-52049D02*
X63381Y-71099D01*
G54D10*
X72906Y-61574D02*
X79256Y-61574D01*
X79256Y-86974D01*
G54D10*
X53856Y-86974D02*
X53856Y-61574D01*
X63381Y-61574D01*
G54D14*
X282612Y-342106D02*
X282612Y-331440D01*
X277812Y-338106D01*
X277812Y-339440D01*
X284212Y-339440D01*
G54D14*
X287146Y-331440D02*
X293546Y-331440D01*
X292746Y-332773D01*
X291146Y-334773D01*
X289546Y-337440D01*
X288746Y-339440D01*
X288746Y-342106D01*
G54D14*
X296478Y-342106D02*
X296478Y-331440D01*
G54D14*
X298878Y-338106D02*
X301278Y-342106D01*
G54D14*
X296478Y-339440D02*
X301278Y-336106D01*
G54D14*
X307304Y-342106D02*
X307304Y-331440D01*
G54D14*
X315038Y-340506D02*
X315038Y-337840D01*
X314238Y-336506D01*
X312638Y-336106D01*
X311038Y-336506D01*
X310238Y-337840D01*
X310238Y-340506D01*
X311038Y-341840D01*
X312638Y-342106D01*
X314238Y-341840D01*
X315038Y-340506D01*
G54D14*
X317970Y-344106D02*
X319570Y-344773D01*
X320690Y-344773D01*
X322290Y-344106D01*
X322770Y-342773D01*
X322770Y-336106D01*
G54D14*
X322770Y-337840D02*
X321970Y-336506D01*
X320370Y-336106D01*
X318770Y-336506D01*
X317970Y-337840D01*
X317970Y-340506D01*
X318770Y-341840D01*
X320370Y-342106D01*
X321970Y-341840D01*
X322770Y-340506D01*
G54D14*
X325704Y-342106D02*
X325704Y-342106D01*
G54D12*
X150829Y-207580D02*
X156162Y-207580D01*
X150829Y-216469D01*
X156162Y-216469D01*
G54D12*
X158606Y-216469D02*
X158606Y-207580D01*
X163272Y-207580D01*
G54D12*
X158606Y-212024D02*
X163272Y-212024D01*
G54D12*
X171050Y-207580D02*
X165717Y-207580D01*
X165717Y-211469D01*
X166383Y-211469D01*
X167717Y-210913D01*
X169050Y-210913D01*
X170383Y-211469D01*
X171050Y-212580D01*
X171050Y-214802D01*
X170383Y-215913D01*
X169050Y-216469D01*
X167717Y-216469D01*
X166383Y-215913D01*
X165717Y-214802D01*
G54D12*
X174827Y-216469D02*
X174827Y-217580D01*
X174160Y-218691D01*
X173494Y-218691D01*
G54D12*
X177271Y-210913D02*
X180604Y-207580D01*
X180604Y-216469D01*
M02*
