; Drill file
; Format: 2.4 (00.0000)
M48
INCH
T01C0.0315
T02C0.0394
T03C0.0591
T04C0.0945
T05C0.0984
%
G05
G90
T01
X003150Y-012700
X004150Y-012700
X007630Y-009370
X007630Y-008370
X007630Y-007370
X007630Y-005990
X009630Y-005990
X010630Y-006370
X011630Y-007370
X011630Y-008370
X011630Y-009370
X013630Y-008370
X014630Y-009870
X015630Y-009870
X016630Y-009870
X017630Y-009870
X018630Y-009870
X019630Y-009870
X019630Y-008870
X020630Y-008870
X019630Y-006870
X017630Y-008370
X015630Y-007370
X015630Y-006370
X014630Y-006370
X015630Y-005370
X014880Y-003870
X014880Y-002620
X018880Y-002620
X018880Y-003870
X018630Y-012870
X017630Y-012870
X016630Y-012870
X015630Y-013870
X015630Y-014870
X016630Y-014870
X018130Y-014240
X019630Y-014870
X020630Y-014870
X020630Y-012870
X019630Y-012870
X018130Y-016240
X014630Y-011870
X008130Y-001580
X004130Y-001580
T02
X002150Y-010270
X003150Y-010270
X004150Y-010270
X003130Y-007430
X002130Y-007430
X002130Y-005430
X003130Y-005430
X003120Y-003420
X002120Y-003420
X007630Y-003870
X013630Y-003870
X021410Y-003560
X021410Y-005560
X022230Y-008020
X022230Y-009020
T03
X009820Y-014640
X011800Y-014620
X013770Y-014620
T04
X001150Y-014700
X005150Y-014700
T05
X007480Y-016540
X022440Y-016540
X022440Y-001180
X001180Y-001180
M30
