%FSLAX34Y34*%
%MOMM*%
%LNCOPPER_BOTTOM*%
G71*
G01*
%ADD10C,1.000*%
%ADD11C,0.318*%
%LPD*%
G36*
X178850Y-91975D02*
X187625Y-83200D01*
X200075Y-83200D01*
X208850Y-91975D01*
X208850Y-104425D01*
X200075Y-113200D01*
X187625Y-113200D01*
X178850Y-104425D01*
X178850Y-91975D01*
G37*
G36*
X331250Y-91975D02*
X340025Y-83200D01*
X352475Y-83200D01*
X361250Y-91975D01*
X361250Y-104425D01*
X352475Y-113200D01*
X340025Y-113200D01*
X331250Y-104425D01*
X331250Y-91975D01*
G37*
G36*
X255650Y-156740D02*
X249215Y-163175D01*
X240085Y-163175D01*
X233650Y-156740D01*
X233650Y-147610D01*
X240085Y-141175D01*
X249215Y-141175D01*
X255650Y-147610D01*
X255650Y-156740D01*
G37*
G36*
X204850Y-156740D02*
X198415Y-163175D01*
X189285Y-163175D01*
X182850Y-156740D01*
X182850Y-147610D01*
X189285Y-141175D01*
X198415Y-141175D01*
X204850Y-147610D01*
X204850Y-156740D01*
G37*
G36*
X109576Y-250918D02*
X115426Y-256768D01*
X115426Y-265068D01*
X109576Y-270918D01*
X101276Y-270918D01*
X95426Y-265068D01*
X95426Y-256768D01*
X101276Y-250918D01*
X109576Y-250918D01*
G37*
G36*
X84176Y-250918D02*
X90026Y-256768D01*
X90026Y-265068D01*
X84176Y-270918D01*
X75876Y-270918D01*
X70026Y-265068D01*
X70026Y-256768D01*
X75876Y-250918D01*
X84176Y-250918D01*
G37*
G36*
X58776Y-250918D02*
X64626Y-256768D01*
X64626Y-265068D01*
X58776Y-270918D01*
X50476Y-270918D01*
X44626Y-265068D01*
X44626Y-256768D01*
X50476Y-250918D01*
X58776Y-250918D01*
G37*
G54D10*
X346250Y-98200D02*
X257350Y-98200D01*
X244650Y-110900D01*
X244650Y-152175D01*
G36*
X259050Y-157135D02*
X265485Y-150700D01*
X274615Y-150700D01*
X281050Y-157135D01*
X281050Y-166265D01*
X274615Y-172700D01*
X265485Y-172700D01*
X259050Y-166265D01*
X259050Y-157135D01*
G37*
G36*
X360650Y-157135D02*
X367085Y-150700D01*
X376215Y-150700D01*
X382650Y-157135D01*
X382650Y-166265D01*
X376215Y-172700D01*
X367085Y-172700D01*
X360650Y-166265D01*
X360650Y-157135D01*
G37*
G36*
X305450Y-191250D02*
X299600Y-197100D01*
X291300Y-197100D01*
X285450Y-191250D01*
X285450Y-182950D01*
X291300Y-177100D01*
X299600Y-177100D01*
X305450Y-182950D01*
X305450Y-191250D01*
G37*
G36*
X203850Y-191250D02*
X198000Y-197100D01*
X189700Y-197100D01*
X183850Y-191250D01*
X183850Y-182950D01*
X189700Y-177100D01*
X198000Y-177100D01*
X203850Y-182950D01*
X203850Y-191250D01*
G37*
G36*
X305450Y-216650D02*
X299600Y-222500D01*
X291300Y-222500D01*
X285450Y-216650D01*
X285450Y-208350D01*
X291300Y-202500D01*
X299600Y-202500D01*
X305450Y-208350D01*
X305450Y-216650D01*
G37*
G36*
X203850Y-216650D02*
X198000Y-222500D01*
X189700Y-222500D01*
X183850Y-216650D01*
X183850Y-208350D01*
X189700Y-202500D01*
X198000Y-202500D01*
X203850Y-208350D01*
X203850Y-216650D01*
G37*
G54D10*
X193850Y-187100D02*
X193850Y-212500D01*
G36*
X387050Y-157550D02*
X392900Y-151700D01*
X401200Y-151700D01*
X407050Y-157550D01*
X407050Y-165850D01*
X401200Y-171700D01*
X392900Y-171700D01*
X387050Y-165850D01*
X387050Y-157550D01*
G37*
G36*
X387050Y-132150D02*
X392900Y-126300D01*
X401200Y-126300D01*
X407050Y-132150D01*
X407050Y-140450D01*
X401200Y-146300D01*
X392900Y-146300D01*
X387050Y-140450D01*
X387050Y-132150D01*
G37*
G36*
X387050Y-182950D02*
X392900Y-177100D01*
X401200Y-177100D01*
X407050Y-182950D01*
X407050Y-191250D01*
X401200Y-197100D01*
X392900Y-197100D01*
X387050Y-191250D01*
X387050Y-182950D01*
G37*
G36*
X182850Y-233335D02*
X189285Y-226900D01*
X198415Y-226900D01*
X204850Y-233335D01*
X204850Y-242465D01*
X198415Y-248900D01*
X189285Y-248900D01*
X182850Y-242465D01*
X182850Y-233335D01*
G37*
G36*
X284450Y-233335D02*
X290885Y-226900D01*
X300015Y-226900D01*
X306450Y-233335D01*
X306450Y-242465D01*
X300015Y-248900D01*
X290885Y-248900D01*
X284450Y-242465D01*
X284450Y-233335D01*
G37*
G36*
X367000Y-93635D02*
X373435Y-87200D01*
X382565Y-87200D01*
X389000Y-93635D01*
X389000Y-102765D01*
X382565Y-109200D01*
X373435Y-109200D01*
X367000Y-102765D01*
X367000Y-93635D01*
G37*
G36*
X468600Y-93635D02*
X475035Y-87200D01*
X484165Y-87200D01*
X490600Y-93635D01*
X490600Y-102765D01*
X484165Y-109200D01*
X475035Y-109200D01*
X468600Y-102765D01*
X468600Y-93635D01*
G37*
G54D10*
X295450Y-237900D02*
X276400Y-237900D01*
X270050Y-231550D01*
X270050Y-194250D01*
X277200Y-187100D01*
X295450Y-187100D01*
G54D10*
X295450Y-212500D02*
X308150Y-212500D01*
X320850Y-225200D01*
X320850Y-250600D01*
X311325Y-260125D01*
X203375Y-260125D01*
X193850Y-250600D01*
X193850Y-237900D01*
G54D10*
X295450Y-187100D02*
X295450Y-174400D01*
X308150Y-161700D01*
X371650Y-161700D01*
G54D10*
X371650Y-161700D02*
X371650Y-123600D01*
X378000Y-117250D01*
X378000Y-98200D01*
G54D10*
X397050Y-161700D02*
X371650Y-161700D01*
G54D10*
X397050Y-136300D02*
X466900Y-136300D01*
X479600Y-123600D01*
X479600Y-98200D01*
G54D10*
X397050Y-187100D02*
X333550Y-187100D01*
X320850Y-199800D01*
X320850Y-225200D01*
G36*
X367000Y-61885D02*
X373435Y-55450D01*
X382565Y-55450D01*
X389000Y-61885D01*
X389000Y-71015D01*
X382565Y-77450D01*
X373435Y-77450D01*
X367000Y-71015D01*
X367000Y-61885D01*
G37*
G36*
X468600Y-61885D02*
X475035Y-55450D01*
X484165Y-55450D01*
X490600Y-61885D01*
X490600Y-71015D01*
X484165Y-77450D01*
X475035Y-77450D01*
X468600Y-71015D01*
X468600Y-61885D01*
G37*
G36*
X458850Y-217065D02*
X452415Y-223500D01*
X443285Y-223500D01*
X436850Y-217065D01*
X436850Y-207935D01*
X443285Y-201500D01*
X452415Y-201500D01*
X458850Y-207935D01*
X458850Y-217065D01*
G37*
G36*
X357250Y-217065D02*
X350815Y-223500D01*
X341685Y-223500D01*
X335250Y-217065D01*
X335250Y-207935D01*
X341685Y-201500D01*
X350815Y-201500D01*
X357250Y-207935D01*
X357250Y-217065D01*
G37*
G54D10*
X447850Y-212500D02*
X447850Y-149000D01*
X435150Y-136300D01*
G36*
X455985Y-423525D02*
X449550Y-417090D01*
X449550Y-407960D01*
X455985Y-401525D01*
X465115Y-401525D01*
X471550Y-407960D01*
X471550Y-417090D01*
X465115Y-423525D01*
X455985Y-423525D01*
G37*
G36*
X455985Y-372725D02*
X449550Y-366290D01*
X449550Y-357160D01*
X455985Y-350725D01*
X465115Y-350725D01*
X471550Y-357160D01*
X471550Y-366290D01*
X465115Y-372725D01*
X455985Y-372725D01*
G37*
G36*
X418300Y-336800D02*
X412450Y-330950D01*
X412450Y-322650D01*
X418300Y-316800D01*
X426600Y-316800D01*
X432450Y-322650D01*
X432450Y-330950D01*
X426600Y-336800D01*
X418300Y-336800D01*
G37*
G36*
X443700Y-336800D02*
X437850Y-330950D01*
X437850Y-322650D01*
X443700Y-316800D01*
X452000Y-316800D01*
X457850Y-322650D01*
X457850Y-330950D01*
X452000Y-336800D01*
X443700Y-336800D01*
G37*
G36*
X469100Y-336800D02*
X463250Y-330950D01*
X463250Y-322650D01*
X469100Y-316800D01*
X477400Y-316800D01*
X483250Y-322650D01*
X483250Y-330950D01*
X477400Y-336800D01*
X469100Y-336800D01*
G37*
G36*
X494500Y-336800D02*
X488650Y-330950D01*
X488650Y-322650D01*
X494500Y-316800D01*
X502800Y-316800D01*
X508650Y-322650D01*
X508650Y-330950D01*
X502800Y-336800D01*
X494500Y-336800D01*
G37*
G36*
X418300Y-260600D02*
X412450Y-254750D01*
X412450Y-246450D01*
X418300Y-240600D01*
X426600Y-240600D01*
X432450Y-246450D01*
X432450Y-254750D01*
X426600Y-260600D01*
X418300Y-260600D01*
G37*
G36*
X443700Y-260600D02*
X437850Y-254750D01*
X437850Y-246450D01*
X443700Y-240600D01*
X452000Y-240600D01*
X457850Y-246450D01*
X457850Y-254750D01*
X452000Y-260600D01*
X443700Y-260600D01*
G37*
G36*
X469100Y-260600D02*
X463250Y-254750D01*
X463250Y-246450D01*
X469100Y-240600D01*
X477400Y-240600D01*
X483250Y-246450D01*
X483250Y-254750D01*
X477400Y-260600D01*
X469100Y-260600D01*
G37*
G36*
X494500Y-260600D02*
X488650Y-254750D01*
X488650Y-246450D01*
X494500Y-240600D01*
X502800Y-240600D01*
X508650Y-246450D01*
X508650Y-254750D01*
X502800Y-260600D01*
X494500Y-260600D01*
G37*
G54D10*
X473250Y-250600D02*
X473250Y-161700D01*
X505000Y-129950D01*
X505000Y-79150D01*
X492300Y-66450D01*
X479600Y-66450D01*
G36*
X388050Y-373865D02*
X393315Y-368600D01*
X400785Y-368600D01*
X406050Y-373865D01*
X406050Y-381335D01*
X400785Y-386600D01*
X393315Y-386600D01*
X388050Y-381335D01*
X388050Y-373865D01*
G37*
G36*
X413450Y-373865D02*
X418715Y-368600D01*
X426185Y-368600D01*
X431450Y-373865D01*
X431450Y-381335D01*
X426185Y-386600D01*
X418715Y-386600D01*
X413450Y-381335D01*
X413450Y-373865D01*
G37*
G36*
X392485Y-363200D02*
X386050Y-356765D01*
X386050Y-347635D01*
X392485Y-341200D01*
X401615Y-341200D01*
X408050Y-347635D01*
X408050Y-356765D01*
X401615Y-363200D01*
X392485Y-363200D01*
G37*
G36*
X392485Y-261600D02*
X386050Y-255165D01*
X386050Y-246035D01*
X392485Y-239600D01*
X401615Y-239600D01*
X408050Y-246035D01*
X408050Y-255165D01*
X401615Y-261600D01*
X392485Y-261600D01*
G37*
G54D10*
X422450Y-250600D02*
X397050Y-250600D01*
G54D10*
X422450Y-377600D02*
X422450Y-326800D01*
G54D10*
X397050Y-377600D02*
X397050Y-352200D01*
G36*
X367085Y-312400D02*
X360650Y-305965D01*
X360650Y-296835D01*
X367085Y-290400D01*
X376215Y-290400D01*
X382650Y-296835D01*
X382650Y-305965D01*
X376215Y-312400D01*
X367085Y-312400D01*
G37*
G36*
X367085Y-261600D02*
X360650Y-255165D01*
X360650Y-246035D01*
X367085Y-239600D01*
X376215Y-239600D01*
X382650Y-246035D01*
X382650Y-255165D01*
X376215Y-261600D01*
X367085Y-261600D01*
G37*
G54D10*
X371650Y-250600D02*
X371650Y-199800D01*
X384350Y-187100D01*
G54D10*
X447850Y-250600D02*
X447850Y-263300D01*
X435150Y-276000D01*
X385950Y-276000D01*
X371650Y-290300D01*
X371650Y-301400D01*
G54D10*
X371650Y-250600D02*
X371650Y-263300D01*
X346250Y-288700D01*
X346250Y-314100D01*
X358950Y-326800D01*
X390700Y-326800D01*
X416100Y-301400D01*
X485950Y-301400D01*
X498650Y-314100D01*
X498650Y-326800D01*
G54D10*
X447850Y-326800D02*
X447850Y-314100D01*
X435150Y-301400D01*
G36*
X494085Y-236200D02*
X487650Y-229765D01*
X487650Y-220635D01*
X494085Y-214200D01*
X503215Y-214200D01*
X509650Y-220635D01*
X509650Y-229765D01*
X503215Y-236200D01*
X494085Y-236200D01*
G37*
G36*
X494085Y-185400D02*
X487650Y-178965D01*
X487650Y-169835D01*
X494085Y-163400D01*
X503215Y-163400D01*
X509650Y-169835D01*
X509650Y-178965D01*
X503215Y-185400D01*
X494085Y-185400D01*
G37*
G54D10*
X498650Y-250600D02*
X498650Y-225200D01*
G36*
X519485Y-337800D02*
X513050Y-331365D01*
X513050Y-322235D01*
X519485Y-315800D01*
X528615Y-315800D01*
X535050Y-322235D01*
X535050Y-331365D01*
X528615Y-337800D01*
X519485Y-337800D01*
G37*
G36*
X519485Y-236200D02*
X513050Y-229765D01*
X513050Y-220635D01*
X519485Y-214200D01*
X528615Y-214200D01*
X535050Y-220635D01*
X535050Y-229765D01*
X528615Y-236200D01*
X519485Y-236200D01*
G37*
G36*
X489650Y-373865D02*
X494915Y-368600D01*
X502385Y-368600D01*
X507650Y-373865D01*
X507650Y-381335D01*
X502385Y-386600D01*
X494915Y-386600D01*
X489650Y-381335D01*
X489650Y-373865D01*
G37*
G36*
X515050Y-373865D02*
X520315Y-368600D01*
X527785Y-368600D01*
X533050Y-373865D01*
X533050Y-381335D01*
X527785Y-386600D01*
X520315Y-386600D01*
X515050Y-381335D01*
X515050Y-373865D01*
G37*
G54D10*
X498650Y-377600D02*
X498650Y-326800D01*
G54D10*
X524050Y-326800D02*
X498650Y-326800D01*
G54D10*
X498650Y-174400D02*
X517700Y-174400D01*
X524050Y-180750D01*
X524050Y-225200D01*
G54D10*
X473250Y-250600D02*
X473250Y-269650D01*
X485950Y-282350D01*
X536750Y-282350D01*
X549450Y-295050D01*
X549450Y-364900D01*
X536750Y-377600D01*
X524050Y-377600D01*
G36*
X549919Y-75462D02*
X558694Y-84236D01*
X558694Y-96686D01*
X549919Y-105462D01*
X537469Y-105462D01*
X528694Y-96686D01*
X528694Y-84236D01*
X537469Y-75462D01*
X549919Y-75462D01*
G37*
G36*
X549919Y-126262D02*
X558694Y-135036D01*
X558694Y-147486D01*
X549919Y-156262D01*
X537469Y-156262D01*
X528694Y-147486D01*
X528694Y-135036D01*
X537469Y-126262D01*
X549919Y-126262D01*
G37*
G36*
X554531Y-199619D02*
X560381Y-193769D01*
X568681Y-193769D01*
X574531Y-199619D01*
X574531Y-207919D01*
X568681Y-213769D01*
X560381Y-213769D01*
X554531Y-207919D01*
X554531Y-199619D01*
G37*
G36*
X554531Y-225019D02*
X560381Y-219169D01*
X568681Y-219169D01*
X574531Y-225019D01*
X574531Y-233319D01*
X568681Y-239169D01*
X560381Y-239169D01*
X554531Y-233319D01*
X554531Y-225019D01*
G37*
G36*
X49972Y-198659D02*
X44122Y-192809D01*
X44122Y-184509D01*
X49972Y-178659D01*
X58272Y-178659D01*
X64122Y-184509D01*
X64122Y-192809D01*
X58272Y-198659D01*
X49972Y-198659D01*
G37*
G36*
X75372Y-198659D02*
X69522Y-192809D01*
X69522Y-184509D01*
X75372Y-178659D01*
X83672Y-178659D01*
X89522Y-184509D01*
X89522Y-192809D01*
X83672Y-198659D01*
X75372Y-198659D01*
G37*
G36*
X93950Y-35691D02*
X100385Y-29256D01*
X109515Y-29256D01*
X115950Y-35691D01*
X115950Y-44821D01*
X109515Y-51256D01*
X100385Y-51256D01*
X93950Y-44821D01*
X93950Y-35691D01*
G37*
G36*
X195550Y-35691D02*
X201985Y-29256D01*
X211115Y-29256D01*
X217550Y-35691D01*
X217550Y-44821D01*
X211115Y-51256D01*
X201985Y-51256D01*
X195550Y-44821D01*
X195550Y-35691D01*
G37*
G36*
X83700Y-127887D02*
X89550Y-133737D01*
X89550Y-142037D01*
X83700Y-147887D01*
X75400Y-147887D01*
X69550Y-142037D01*
X69550Y-133737D01*
X75400Y-127887D01*
X83700Y-127887D01*
G37*
G36*
X58300Y-127887D02*
X64150Y-133737D01*
X64150Y-142037D01*
X58300Y-147887D01*
X50000Y-147887D01*
X44150Y-142037D01*
X44150Y-133737D01*
X50000Y-127887D01*
X58300Y-127887D01*
G37*
G54D11*
X295716Y-313008D02*
X295716Y-295231D01*
G54D11*
X285050Y-313008D02*
X285050Y-295231D01*
G54D11*
X295716Y-304120D02*
X285050Y-304120D01*
G54D11*
X278828Y-313008D02*
X278828Y-295231D01*
X272161Y-295231D01*
X269494Y-296342D01*
X268161Y-298564D01*
X268161Y-300786D01*
X269494Y-303008D01*
X272161Y-304120D01*
X269494Y-305231D01*
X268161Y-307453D01*
X268161Y-309675D01*
X269494Y-311897D01*
X272161Y-313008D01*
X278828Y-313008D01*
G54D11*
X278828Y-304120D02*
X272161Y-304120D01*
G54D11*
X253938Y-310342D02*
X253938Y-305897D01*
X255272Y-303675D01*
X257938Y-303008D01*
X260605Y-303675D01*
X261938Y-305897D01*
X261938Y-310342D01*
X260605Y-312564D01*
X257938Y-313008D01*
X255272Y-312564D01*
X253938Y-310342D01*
G54D11*
X247716Y-311897D02*
X245050Y-313008D01*
X242383Y-313008D01*
X239716Y-311897D01*
X239716Y-309675D01*
X241050Y-308564D01*
X246383Y-307453D01*
X247716Y-306342D01*
X247716Y-304120D01*
X245050Y-303008D01*
X242383Y-303008D01*
X239716Y-304120D01*
G54D11*
X225494Y-311897D02*
X227628Y-313008D01*
X230294Y-313008D01*
X232961Y-311897D01*
X233494Y-309675D01*
X233494Y-305897D01*
X232161Y-303675D01*
X229494Y-303008D01*
X226828Y-303675D01*
X225494Y-305231D01*
X225494Y-307453D01*
X233494Y-307453D01*
G54D11*
X202117Y-313008D02*
X212784Y-313008D01*
X212784Y-311897D01*
X211450Y-309675D01*
X203450Y-303008D01*
X202117Y-300786D01*
X202117Y-298564D01*
X203450Y-296342D01*
X206117Y-295231D01*
X208784Y-295231D01*
X211450Y-296342D01*
X212784Y-298564D01*
G54D11*
X185228Y-298564D02*
X185228Y-309675D01*
X186561Y-311897D01*
X189228Y-313008D01*
X191894Y-313008D01*
X194561Y-311897D01*
X195894Y-309675D01*
X195894Y-298564D01*
X194561Y-296342D01*
X191894Y-295231D01*
X189228Y-295231D01*
X186561Y-296342D01*
X185228Y-298564D01*
G54D11*
X179006Y-301897D02*
X172339Y-295231D01*
X172339Y-313008D01*
G54D11*
X159450Y-304120D02*
X162116Y-304120D01*
X164783Y-303008D01*
X166116Y-300786D01*
X166116Y-298564D01*
X164783Y-296342D01*
X162116Y-295231D01*
X159450Y-295231D01*
X156783Y-296342D01*
X155450Y-298564D01*
X155450Y-300786D01*
X156783Y-303008D01*
X159450Y-304120D01*
X156783Y-305231D01*
X155450Y-307453D01*
X155450Y-309675D01*
X156783Y-311897D01*
X159450Y-313008D01*
X162116Y-313008D01*
X164783Y-311897D01*
X166116Y-309675D01*
X166116Y-307453D01*
X164783Y-305231D01*
X162116Y-304120D01*
G54D11*
X524397Y-22177D02*
X523064Y-24400D01*
X520397Y-25511D01*
X517731Y-25511D01*
X515064Y-24400D01*
X513731Y-22177D01*
X513731Y-19955D01*
X515064Y-17733D01*
X517731Y-16622D01*
X520397Y-16622D01*
X523064Y-15511D01*
X524397Y-13288D01*
X524397Y-11066D01*
X523064Y-8844D01*
X520397Y-7733D01*
X517731Y-7733D01*
X515064Y-8844D01*
X513731Y-11066D01*
G54D11*
X507508Y-25511D02*
X507508Y-15511D01*
G54D11*
X507508Y-12177D02*
X507508Y-12177D01*
G54D11*
X501286Y-28844D02*
X498620Y-29955D01*
X496753Y-29955D01*
X494086Y-28844D01*
X493286Y-26622D01*
X493286Y-15511D01*
G54D11*
X493286Y-18400D02*
X494620Y-16177D01*
X497286Y-15511D01*
X499953Y-16177D01*
X501286Y-18400D01*
X501286Y-22844D01*
X499953Y-25066D01*
X497286Y-25511D01*
X494620Y-25066D01*
X493286Y-22844D01*
G54D11*
X487064Y-25511D02*
X487064Y-15511D01*
G54D11*
X487064Y-17733D02*
X485731Y-16177D01*
X483064Y-15511D01*
X480398Y-16177D01*
X479064Y-17733D01*
X479064Y-25511D01*
G54D11*
X472842Y-16622D02*
X470176Y-15511D01*
X466976Y-15511D01*
X464842Y-17733D01*
X464842Y-25511D01*
G54D11*
X464842Y-22177D02*
X466176Y-19955D01*
X468842Y-19511D01*
X471509Y-19955D01*
X472842Y-22177D01*
X472309Y-24400D01*
X470176Y-25511D01*
X468842Y-25511D01*
X468309Y-25511D01*
X466176Y-24400D01*
X464842Y-22177D01*
G54D11*
X458620Y-25511D02*
X458620Y-7733D01*
G54D11*
X452398Y-17733D02*
X441732Y-17733D01*
G54D11*
X435509Y-7733D02*
X428843Y-25511D01*
X422176Y-7733D01*
G54D11*
X407954Y-24400D02*
X410088Y-25511D01*
X412754Y-25511D01*
X415421Y-24400D01*
X415954Y-22177D01*
X415954Y-18400D01*
X414621Y-16177D01*
X411954Y-15511D01*
X409288Y-16177D01*
X407954Y-17733D01*
X407954Y-19955D01*
X415954Y-19955D01*
G54D11*
X401732Y-25511D02*
X401732Y-15511D01*
G54D11*
X401732Y-17733D02*
X399066Y-15511D01*
X396399Y-15511D01*
G54D11*
X390177Y-24400D02*
X387511Y-25511D01*
X384844Y-25511D01*
X382177Y-24400D01*
X382177Y-22177D01*
X383511Y-21066D01*
X388844Y-19955D01*
X390177Y-18844D01*
X390177Y-16622D01*
X387511Y-15511D01*
X384844Y-15511D01*
X382177Y-16622D01*
G54D11*
X373289Y-7733D02*
X373289Y-24400D01*
X371955Y-25511D01*
X370622Y-25066D01*
G54D11*
X375955Y-15511D02*
X370622Y-15511D01*
G54D11*
X364400Y-16622D02*
X361734Y-15511D01*
X358534Y-15511D01*
X356400Y-17733D01*
X356400Y-25511D01*
G54D11*
X356400Y-22177D02*
X357734Y-19955D01*
X360400Y-19511D01*
X363067Y-19955D01*
X364400Y-22177D01*
X363867Y-24400D01*
X361734Y-25511D01*
X360400Y-25511D01*
X359867Y-25511D01*
X357734Y-24400D01*
X356400Y-22177D01*
G54D11*
X342178Y-24400D02*
X344312Y-25511D01*
X346978Y-25511D01*
X349645Y-24400D01*
X350178Y-22177D01*
X350178Y-18400D01*
X348845Y-16177D01*
X346178Y-15511D01*
X343512Y-16177D01*
X342178Y-17733D01*
X342178Y-19955D01*
X350178Y-19955D01*
G54D11*
X335956Y-25511D02*
X335956Y-15511D01*
G54D11*
X335956Y-17733D02*
X333290Y-15511D01*
X330623Y-15511D01*
G54D11*
X324401Y-25511D02*
X324401Y-7733D01*
G54D11*
X320401Y-18844D02*
X316401Y-25511D01*
G54D11*
X324401Y-21066D02*
X316401Y-15511D01*
G54D11*
X302179Y-24400D02*
X304313Y-25511D01*
X306979Y-25511D01*
X309646Y-24400D01*
X310179Y-22177D01*
X310179Y-18400D01*
X308846Y-16177D01*
X306179Y-15511D01*
X303513Y-16177D01*
X302179Y-17733D01*
X302179Y-19955D01*
X310179Y-19955D01*
G54D11*
X295957Y-25511D02*
X295957Y-15511D01*
G54D11*
X295957Y-17733D02*
X293291Y-15511D01*
X290624Y-15511D01*
G36*
X358075Y-351475D02*
X369775Y-363175D01*
X369775Y-379775D01*
X358075Y-391475D01*
X341475Y-391475D01*
X329775Y-379775D01*
X329775Y-363175D01*
X341475Y-351475D01*
X358075Y-351475D01*
G37*
G36*
X308075Y-351475D02*
X319775Y-363175D01*
X319775Y-379775D01*
X308075Y-391475D01*
X291475Y-391475D01*
X279775Y-379775D01*
X279775Y-363175D01*
X291475Y-351475D01*
X308075Y-351475D01*
G37*
G36*
X257661Y-351766D02*
X269361Y-363466D01*
X269361Y-380066D01*
X257661Y-391766D01*
X241061Y-391766D01*
X229361Y-380066D01*
X229361Y-363466D01*
X241061Y-351766D01*
X257661Y-351766D01*
G37*
G54D10*
X460550Y-361725D02*
X460550Y-355425D01*
X473075Y-342900D01*
X473075Y-326975D01*
X473250Y-326800D01*
G54D10*
X460375Y-412750D02*
X358775Y-412750D01*
X349250Y-403225D01*
X349250Y-371475D01*
G54D10*
X498475Y-377825D02*
X498475Y-425450D01*
X488950Y-434975D01*
X258762Y-434975D01*
X249238Y-425450D01*
X249238Y-371475D01*
G36*
X160725Y-385785D02*
X143175Y-403335D01*
X118275Y-403335D01*
X100725Y-385785D01*
X100725Y-360885D01*
X118275Y-343335D01*
X143175Y-343335D01*
X160725Y-360885D01*
X160725Y-385785D01*
G37*
G36*
X59125Y-385785D02*
X41575Y-403335D01*
X16675Y-403335D01*
X-875Y-385785D01*
X-875Y-360885D01*
X16675Y-343335D01*
X41575Y-343335D01*
X59125Y-360885D01*
X59125Y-385785D01*
G37*
G36*
X89925Y-326685D02*
X84075Y-332535D01*
X75775Y-332535D01*
X69925Y-326685D01*
X69925Y-318385D01*
X75775Y-312535D01*
X84075Y-312535D01*
X89925Y-318385D01*
X89925Y-326685D01*
G37*
G36*
X115325Y-326685D02*
X109475Y-332535D01*
X101175Y-332535D01*
X95325Y-326685D01*
X95325Y-318385D01*
X101175Y-312535D01*
X109475Y-312535D01*
X115325Y-318385D01*
X115325Y-326685D01*
G37*
G36*
X83406Y-76874D02*
X89256Y-82724D01*
X89256Y-91024D01*
X83406Y-96874D01*
X75106Y-96874D01*
X69256Y-91024D01*
X69256Y-82724D01*
X75106Y-76874D01*
X83406Y-76874D01*
G37*
G36*
X58006Y-76874D02*
X63856Y-82724D01*
X63856Y-91024D01*
X58006Y-96874D01*
X49706Y-96874D01*
X43856Y-91024D01*
X43856Y-82724D01*
X49706Y-76874D01*
X58006Y-76874D01*
G37*
G54D10*
X498650Y-250600D02*
X534419Y-250600D01*
X543719Y-241300D01*
X543719Y-141286D01*
X543694Y-141262D01*
G54D10*
X498650Y-377600D02*
X498650Y-389112D01*
X508000Y-398462D01*
X542131Y-398462D01*
X563562Y-377031D01*
X563562Y-230138D01*
X564531Y-229169D01*
G54D10*
X564531Y-203769D02*
X564531Y-156194D01*
X569912Y-150812D01*
X569912Y-97631D01*
X562769Y-90488D01*
X543720Y-90488D01*
X543694Y-90462D01*
G36*
X10000Y-21700D02*
X21700Y-10000D01*
X38300Y-10000D01*
X50000Y-21700D01*
X50000Y-38300D01*
X38300Y-50000D01*
X21700Y-50000D01*
X10000Y-38300D01*
X10000Y-21700D01*
G37*
G36*
X550000Y-21700D02*
X561700Y-10000D01*
X578300Y-10000D01*
X590000Y-21700D01*
X590000Y-38300D01*
X578300Y-50000D01*
X561700Y-50000D01*
X550000Y-38300D01*
X550000Y-21700D01*
G37*
G54D10*
X346250Y-212500D02*
X346250Y-257000D01*
X330200Y-273050D01*
X330200Y-336550D01*
X295275Y-371475D01*
G54D10*
X105325Y-322535D02*
X105325Y-347935D01*
X130725Y-373335D01*
G54D10*
X29125Y-373335D02*
X130725Y-373335D01*
G54D10*
X80026Y-260918D02*
X79925Y-322535D01*
G54D10*
X193850Y-152175D02*
X176438Y-152175D01*
X168275Y-160338D01*
X168275Y-250825D01*
X158750Y-260350D01*
X105518Y-260350D01*
X104950Y-260918D01*
G54D10*
X54150Y-260918D02*
X54150Y-242713D01*
X63500Y-233362D01*
X139700Y-233362D01*
X149225Y-223838D01*
X149225Y-107950D01*
X158750Y-98425D01*
X193625Y-98425D01*
X193850Y-98200D01*
G54D10*
X244650Y-152175D02*
X260525Y-152175D01*
X270050Y-161700D01*
G54D10*
X378000Y-66450D02*
X416150Y-66450D01*
X447900Y-98200D01*
X479600Y-98200D01*
G54D10*
X29125Y-368969D02*
X29125Y-225272D01*
X39688Y-214709D01*
X71438Y-214709D01*
X79375Y-206772D01*
X79522Y-188659D01*
G54D10*
X54122Y-188659D02*
X54150Y-137094D01*
G54D10*
X29125Y-229638D02*
X29125Y-95494D01*
X37703Y-86916D01*
X53814Y-86916D01*
X53856Y-86874D01*
G54D10*
X104950Y-40256D02*
X85950Y-40256D01*
X79375Y-46831D01*
X79375Y-78420D01*
X79256Y-78540D01*
G54D10*
X79550Y-137887D02*
X101825Y-137887D01*
X111125Y-128588D01*
X111125Y-74116D01*
X144984Y-40256D01*
X206550Y-40256D01*
G54D10*
X479600Y-66450D02*
X479600Y-51769D01*
X468312Y-40481D01*
X215503Y-40481D01*
X215106Y-40084D01*
G36*
X550000Y-411700D02*
X561700Y-400000D01*
X578300Y-400000D01*
X590000Y-411700D01*
X590000Y-428300D01*
X578300Y-440000D01*
X561700Y-440000D01*
X550000Y-428300D01*
X550000Y-411700D01*
G37*
G36*
X170000Y-411700D02*
X181700Y-400000D01*
X198300Y-400000D01*
X210000Y-411700D01*
X210000Y-428300D01*
X198300Y-440000D01*
X181700Y-440000D01*
X170000Y-428300D01*
X170000Y-411700D01*
G37*
G54D10*
X193850Y-237900D02*
X206550Y-237900D01*
X219075Y-225375D01*
X219075Y-80962D01*
X210344Y-72231D01*
X141288Y-72231D01*
X131762Y-81756D01*
X131762Y-180975D01*
X124078Y-188659D01*
X79522Y-188659D01*
M02*
