%FSLAX34Y34*%
%MOMM*%
%LNSOLDERMASK_BOTTOM*%
G71*
G01*
%ADD10C,2.540*%
%LPD*%
G36*
X175850Y-90730D02*
X186380Y-80200D01*
X201320Y-80200D01*
X211850Y-90730D01*
X211850Y-105670D01*
X201320Y-116200D01*
X186380Y-116200D01*
X175850Y-105670D01*
X175850Y-90730D01*
G37*
G36*
X328250Y-90730D02*
X338780Y-80200D01*
X353720Y-80200D01*
X364250Y-90730D01*
X364250Y-105670D01*
X353720Y-116200D01*
X338780Y-116200D01*
X328250Y-105670D01*
X328250Y-90730D01*
G37*
G36*
X258650Y-157985D02*
X250460Y-166175D01*
X238840Y-166175D01*
X230650Y-157985D01*
X230650Y-146365D01*
X238840Y-138175D01*
X250460Y-138175D01*
X258650Y-146365D01*
X258650Y-157985D01*
G37*
G36*
X207850Y-157985D02*
X199660Y-166175D01*
X188040Y-166175D01*
X179850Y-157985D01*
X179850Y-146365D01*
X188040Y-138175D01*
X199660Y-138175D01*
X207850Y-146365D01*
X207850Y-157985D01*
G37*
G36*
X110821Y-247918D02*
X118426Y-255524D01*
X118426Y-266314D01*
X110821Y-273918D01*
X100031Y-273918D01*
X92426Y-266314D01*
X92426Y-255524D01*
X100031Y-247918D01*
X110821Y-247918D01*
G37*
G36*
X85421Y-247918D02*
X93026Y-255524D01*
X93026Y-266314D01*
X85421Y-273918D01*
X74631Y-273918D01*
X67026Y-266314D01*
X67026Y-255524D01*
X74631Y-247918D01*
X85421Y-247918D01*
G37*
G36*
X60021Y-247918D02*
X67626Y-255524D01*
X67626Y-266314D01*
X60021Y-273918D01*
X49231Y-273918D01*
X41626Y-266314D01*
X41626Y-255524D01*
X49231Y-247918D01*
X60021Y-247918D01*
G37*
G36*
X256050Y-155890D02*
X264240Y-147700D01*
X275860Y-147700D01*
X284050Y-155890D01*
X284050Y-167510D01*
X275860Y-175700D01*
X264240Y-175700D01*
X256050Y-167510D01*
X256050Y-155890D01*
G37*
G36*
X357650Y-155890D02*
X365840Y-147700D01*
X377460Y-147700D01*
X385650Y-155890D01*
X385650Y-167510D01*
X377460Y-175700D01*
X365840Y-175700D01*
X357650Y-167510D01*
X357650Y-155890D01*
G37*
G36*
X308450Y-192495D02*
X300845Y-200100D01*
X290055Y-200100D01*
X282450Y-192495D01*
X282450Y-181705D01*
X290055Y-174100D01*
X300845Y-174100D01*
X308450Y-181705D01*
X308450Y-192495D01*
G37*
G36*
X206850Y-192495D02*
X199245Y-200100D01*
X188455Y-200100D01*
X180850Y-192495D01*
X180850Y-181705D01*
X188455Y-174100D01*
X199245Y-174100D01*
X206850Y-181705D01*
X206850Y-192495D01*
G37*
G36*
X308450Y-217895D02*
X300845Y-225500D01*
X290055Y-225500D01*
X282450Y-217895D01*
X282450Y-207105D01*
X290055Y-199500D01*
X300845Y-199500D01*
X308450Y-207105D01*
X308450Y-217895D01*
G37*
G36*
X206850Y-217895D02*
X199245Y-225500D01*
X188455Y-225500D01*
X180850Y-217895D01*
X180850Y-207105D01*
X188455Y-199500D01*
X199245Y-199500D01*
X206850Y-207105D01*
X206850Y-217895D01*
G37*
G36*
X384050Y-156305D02*
X391655Y-148700D01*
X402445Y-148700D01*
X410050Y-156305D01*
X410050Y-167095D01*
X402445Y-174700D01*
X391655Y-174700D01*
X384050Y-167095D01*
X384050Y-156305D01*
G37*
G36*
X384050Y-130905D02*
X391655Y-123300D01*
X402445Y-123300D01*
X410050Y-130905D01*
X410050Y-141695D01*
X402445Y-149300D01*
X391655Y-149300D01*
X384050Y-141695D01*
X384050Y-130905D01*
G37*
G36*
X384050Y-181705D02*
X391655Y-174100D01*
X402445Y-174100D01*
X410050Y-181705D01*
X410050Y-192495D01*
X402445Y-200100D01*
X391655Y-200100D01*
X384050Y-192495D01*
X384050Y-181705D01*
G37*
G36*
X179850Y-232090D02*
X188040Y-223900D01*
X199660Y-223900D01*
X207850Y-232090D01*
X207850Y-243710D01*
X199660Y-251900D01*
X188040Y-251900D01*
X179850Y-243710D01*
X179850Y-232090D01*
G37*
G36*
X281450Y-232090D02*
X289640Y-223900D01*
X301260Y-223900D01*
X309450Y-232090D01*
X309450Y-243710D01*
X301260Y-251900D01*
X289640Y-251900D01*
X281450Y-243710D01*
X281450Y-232090D01*
G37*
G36*
X364000Y-92390D02*
X372190Y-84200D01*
X383810Y-84200D01*
X392000Y-92390D01*
X392000Y-104010D01*
X383810Y-112200D01*
X372190Y-112200D01*
X364000Y-104010D01*
X364000Y-92390D01*
G37*
G36*
X465600Y-92390D02*
X473790Y-84200D01*
X485410Y-84200D01*
X493600Y-92390D01*
X493600Y-104010D01*
X485410Y-112200D01*
X473790Y-112200D01*
X465600Y-104010D01*
X465600Y-92390D01*
G37*
G36*
X364000Y-60640D02*
X372190Y-52450D01*
X383810Y-52450D01*
X392000Y-60640D01*
X392000Y-72260D01*
X383810Y-80450D01*
X372190Y-80450D01*
X364000Y-72260D01*
X364000Y-60640D01*
G37*
G36*
X465600Y-60640D02*
X473790Y-52450D01*
X485410Y-52450D01*
X493600Y-60640D01*
X493600Y-72260D01*
X485410Y-80450D01*
X473790Y-80450D01*
X465600Y-72260D01*
X465600Y-60640D01*
G37*
G36*
X461850Y-218310D02*
X453660Y-226500D01*
X442040Y-226500D01*
X433850Y-218310D01*
X433850Y-206690D01*
X442040Y-198500D01*
X453660Y-198500D01*
X461850Y-206690D01*
X461850Y-218310D01*
G37*
G36*
X360250Y-218310D02*
X352060Y-226500D01*
X340440Y-226500D01*
X332250Y-218310D01*
X332250Y-206690D01*
X340440Y-198500D01*
X352060Y-198500D01*
X360250Y-206690D01*
X360250Y-218310D01*
G37*
G36*
X454740Y-426525D02*
X446550Y-418335D01*
X446550Y-406715D01*
X454740Y-398525D01*
X466360Y-398525D01*
X474550Y-406715D01*
X474550Y-418335D01*
X466360Y-426525D01*
X454740Y-426525D01*
G37*
G36*
X454740Y-375725D02*
X446550Y-367535D01*
X446550Y-355915D01*
X454740Y-347725D01*
X466360Y-347725D01*
X474550Y-355915D01*
X474550Y-367535D01*
X466360Y-375725D01*
X454740Y-375725D01*
G37*
G36*
X417055Y-339800D02*
X409450Y-332195D01*
X409450Y-321405D01*
X417055Y-313800D01*
X427845Y-313800D01*
X435450Y-321405D01*
X435450Y-332195D01*
X427845Y-339800D01*
X417055Y-339800D01*
G37*
G36*
X442455Y-339800D02*
X434850Y-332195D01*
X434850Y-321405D01*
X442455Y-313800D01*
X453245Y-313800D01*
X460850Y-321405D01*
X460850Y-332195D01*
X453245Y-339800D01*
X442455Y-339800D01*
G37*
G36*
X467855Y-339800D02*
X460250Y-332195D01*
X460250Y-321405D01*
X467855Y-313800D01*
X478645Y-313800D01*
X486250Y-321405D01*
X486250Y-332195D01*
X478645Y-339800D01*
X467855Y-339800D01*
G37*
G36*
X493255Y-339800D02*
X485650Y-332195D01*
X485650Y-321405D01*
X493255Y-313800D01*
X504045Y-313800D01*
X511650Y-321405D01*
X511650Y-332195D01*
X504045Y-339800D01*
X493255Y-339800D01*
G37*
G36*
X417055Y-263600D02*
X409450Y-255995D01*
X409450Y-245205D01*
X417055Y-237600D01*
X427845Y-237600D01*
X435450Y-245205D01*
X435450Y-255995D01*
X427845Y-263600D01*
X417055Y-263600D01*
G37*
G36*
X442455Y-263600D02*
X434850Y-255995D01*
X434850Y-245205D01*
X442455Y-237600D01*
X453245Y-237600D01*
X460850Y-245205D01*
X460850Y-255995D01*
X453245Y-263600D01*
X442455Y-263600D01*
G37*
G36*
X467855Y-263600D02*
X460250Y-255995D01*
X460250Y-245205D01*
X467855Y-237600D01*
X478645Y-237600D01*
X486250Y-245205D01*
X486250Y-255995D01*
X478645Y-263600D01*
X467855Y-263600D01*
G37*
G36*
X493255Y-263600D02*
X485650Y-255995D01*
X485650Y-245205D01*
X493255Y-237600D01*
X504045Y-237600D01*
X511650Y-245205D01*
X511650Y-255995D01*
X504045Y-263600D01*
X493255Y-263600D01*
G37*
G36*
X385050Y-372620D02*
X392070Y-365600D01*
X402030Y-365600D01*
X409050Y-372620D01*
X409050Y-382580D01*
X402030Y-389600D01*
X392070Y-389600D01*
X385050Y-382580D01*
X385050Y-372620D01*
G37*
G36*
X410450Y-372620D02*
X417470Y-365600D01*
X427430Y-365600D01*
X434450Y-372620D01*
X434450Y-382580D01*
X427430Y-389600D01*
X417470Y-389600D01*
X410450Y-382580D01*
X410450Y-372620D01*
G37*
G36*
X391240Y-366200D02*
X383050Y-358010D01*
X383050Y-346390D01*
X391240Y-338200D01*
X402860Y-338200D01*
X411050Y-346390D01*
X411050Y-358010D01*
X402860Y-366200D01*
X391240Y-366200D01*
G37*
G36*
X391240Y-264600D02*
X383050Y-256410D01*
X383050Y-244790D01*
X391240Y-236600D01*
X402860Y-236600D01*
X411050Y-244790D01*
X411050Y-256410D01*
X402860Y-264600D01*
X391240Y-264600D01*
G37*
G36*
X365840Y-315400D02*
X357650Y-307210D01*
X357650Y-295590D01*
X365840Y-287400D01*
X377460Y-287400D01*
X385650Y-295590D01*
X385650Y-307210D01*
X377460Y-315400D01*
X365840Y-315400D01*
G37*
G36*
X365840Y-264600D02*
X357650Y-256410D01*
X357650Y-244790D01*
X365840Y-236600D01*
X377460Y-236600D01*
X385650Y-244790D01*
X385650Y-256410D01*
X377460Y-264600D01*
X365840Y-264600D01*
G37*
G36*
X492840Y-239200D02*
X484650Y-231010D01*
X484650Y-219390D01*
X492840Y-211200D01*
X504460Y-211200D01*
X512650Y-219390D01*
X512650Y-231010D01*
X504460Y-239200D01*
X492840Y-239200D01*
G37*
G36*
X492840Y-188400D02*
X484650Y-180210D01*
X484650Y-168590D01*
X492840Y-160400D01*
X504460Y-160400D01*
X512650Y-168590D01*
X512650Y-180210D01*
X504460Y-188400D01*
X492840Y-188400D01*
G37*
G36*
X518240Y-340800D02*
X510050Y-332610D01*
X510050Y-320990D01*
X518240Y-312800D01*
X529860Y-312800D01*
X538050Y-320990D01*
X538050Y-332610D01*
X529860Y-340800D01*
X518240Y-340800D01*
G37*
G36*
X518240Y-239200D02*
X510050Y-231010D01*
X510050Y-219390D01*
X518240Y-211200D01*
X529860Y-211200D01*
X538050Y-219390D01*
X538050Y-231010D01*
X529860Y-239200D01*
X518240Y-239200D01*
G37*
G36*
X486650Y-372620D02*
X493670Y-365600D01*
X503630Y-365600D01*
X510650Y-372620D01*
X510650Y-382580D01*
X503630Y-389600D01*
X493670Y-389600D01*
X486650Y-382580D01*
X486650Y-372620D01*
G37*
G36*
X512050Y-372620D02*
X519070Y-365600D01*
X529030Y-365600D01*
X536050Y-372620D01*
X536050Y-382580D01*
X529030Y-389600D01*
X519070Y-389600D01*
X512050Y-382580D01*
X512050Y-372620D01*
G37*
G36*
X551164Y-72462D02*
X561694Y-82992D01*
X561694Y-97932D01*
X551164Y-108462D01*
X536224Y-108462D01*
X525694Y-97932D01*
X525694Y-82992D01*
X536224Y-72462D01*
X551164Y-72462D01*
G37*
G36*
X551164Y-123262D02*
X561694Y-133792D01*
X561694Y-148732D01*
X551164Y-159262D01*
X536224Y-159262D01*
X525694Y-148732D01*
X525694Y-133792D01*
X536224Y-123262D01*
X551164Y-123262D01*
G37*
G36*
X551531Y-198374D02*
X559136Y-190769D01*
X569926Y-190769D01*
X577531Y-198374D01*
X577531Y-209164D01*
X569926Y-216769D01*
X559136Y-216769D01*
X551531Y-209164D01*
X551531Y-198374D01*
G37*
G36*
X551531Y-223774D02*
X559136Y-216169D01*
X569926Y-216169D01*
X577531Y-223774D01*
X577531Y-234564D01*
X569926Y-242169D01*
X559136Y-242169D01*
X551531Y-234564D01*
X551531Y-223774D01*
G37*
G36*
X48728Y-201659D02*
X41122Y-194054D01*
X41122Y-183264D01*
X48728Y-175659D01*
X59518Y-175659D01*
X67122Y-183264D01*
X67122Y-194054D01*
X59518Y-201659D01*
X48728Y-201659D01*
G37*
G36*
X74128Y-201659D02*
X66522Y-194054D01*
X66522Y-183264D01*
X74128Y-175659D01*
X84918Y-175659D01*
X92522Y-183264D01*
X92522Y-194054D01*
X84918Y-201659D01*
X74128Y-201659D01*
G37*
G36*
X90950Y-34446D02*
X99140Y-26256D01*
X110760Y-26256D01*
X118950Y-34446D01*
X118950Y-46066D01*
X110760Y-54256D01*
X99140Y-54256D01*
X90950Y-46066D01*
X90950Y-34446D01*
G37*
G36*
X192550Y-34446D02*
X200740Y-26256D01*
X212360Y-26256D01*
X220550Y-34446D01*
X220550Y-46066D01*
X212360Y-54256D01*
X200740Y-54256D01*
X192550Y-46066D01*
X192550Y-34446D01*
G37*
G36*
X84945Y-124887D02*
X92550Y-132492D01*
X92550Y-143282D01*
X84945Y-150887D01*
X74155Y-150887D01*
X66550Y-143282D01*
X66550Y-132492D01*
X74155Y-124887D01*
X84945Y-124887D01*
G37*
G36*
X59545Y-124887D02*
X67150Y-132492D01*
X67150Y-143282D01*
X59545Y-150887D01*
X48755Y-150887D01*
X41150Y-143282D01*
X41150Y-132492D01*
X48755Y-124887D01*
X59545Y-124887D01*
G37*
G36*
X359320Y-348475D02*
X372775Y-361930D01*
X372775Y-381020D01*
X359320Y-394475D01*
X340230Y-394475D01*
X326775Y-381020D01*
X326775Y-361930D01*
X340230Y-348475D01*
X359320Y-348475D01*
G37*
G36*
X309320Y-348475D02*
X322775Y-361930D01*
X322775Y-381020D01*
X309320Y-394475D01*
X290230Y-394475D01*
X276775Y-381020D01*
X276775Y-361930D01*
X290230Y-348475D01*
X309320Y-348475D01*
G37*
G36*
X258906Y-348766D02*
X272361Y-362221D01*
X272361Y-381311D01*
X258906Y-394766D01*
X239816Y-394766D01*
X226361Y-381311D01*
X226361Y-362221D01*
X239816Y-348766D01*
X258906Y-348766D01*
G37*
G36*
X163725Y-387030D02*
X144420Y-406335D01*
X117030Y-406335D01*
X97725Y-387030D01*
X97725Y-359640D01*
X117030Y-340335D01*
X144420Y-340335D01*
X163725Y-359640D01*
X163725Y-387030D01*
G37*
G36*
X62125Y-387030D02*
X42820Y-406335D01*
X15430Y-406335D01*
X-3875Y-387030D01*
X-3875Y-359640D01*
X15430Y-340335D01*
X42820Y-340335D01*
X62125Y-359640D01*
X62125Y-387030D01*
G37*
G36*
X92925Y-327930D02*
X85320Y-335535D01*
X74530Y-335535D01*
X66925Y-327930D01*
X66925Y-317140D01*
X74530Y-309535D01*
X85320Y-309535D01*
X92925Y-317140D01*
X92925Y-327930D01*
G37*
G36*
X118325Y-327930D02*
X110720Y-335535D01*
X99930Y-335535D01*
X92325Y-327930D01*
X92325Y-317140D01*
X99930Y-309535D01*
X110720Y-309535D01*
X118325Y-317140D01*
X118325Y-327930D01*
G37*
G36*
X84651Y-73874D02*
X92256Y-81479D01*
X92256Y-92269D01*
X84651Y-99874D01*
X73861Y-99874D01*
X66256Y-92269D01*
X66256Y-81479D01*
X73861Y-73874D01*
X84651Y-73874D01*
G37*
G36*
X59251Y-73874D02*
X66856Y-81479D01*
X66856Y-92269D01*
X59251Y-99874D01*
X48461Y-99874D01*
X40856Y-92269D01*
X40856Y-81479D01*
X48461Y-73874D01*
X59251Y-73874D01*
G37*
G36*
X7000Y-20455D02*
X20455Y-7000D01*
X39545Y-7000D01*
X53000Y-20455D01*
X53000Y-39545D01*
X39545Y-53000D01*
X20455Y-53000D01*
X7000Y-39545D01*
X7000Y-20455D01*
G37*
G36*
X547000Y-20455D02*
X560455Y-7000D01*
X579545Y-7000D01*
X593000Y-20455D01*
X593000Y-39545D01*
X579545Y-53000D01*
X560455Y-53000D01*
X547000Y-39545D01*
X547000Y-20455D01*
G37*
G36*
X547000Y-410455D02*
X560455Y-397000D01*
X579545Y-397000D01*
X593000Y-410455D01*
X593000Y-429545D01*
X579545Y-443000D01*
X560455Y-443000D01*
X547000Y-429545D01*
X547000Y-410455D01*
G37*
G36*
X167000Y-410455D02*
X180455Y-397000D01*
X199545Y-397000D01*
X213000Y-410455D01*
X213000Y-429545D01*
X199545Y-443000D01*
X180455Y-443000D01*
X167000Y-429545D01*
X167000Y-410455D01*
G37*
M02*
