%FSLAX34Y34*%
%MOMM*%
%LNSOLDERMASK_BOTTOM*%
G71*
G01*
%ADD10C,7.600*%
%ADD11R,2.000X1.500*%
%ADD12R,1.500X2.000*%
%ADD13R,3.200X1.700*%
%LPD*%
X215000Y-55000D02*
G54D10*
D03*
G36*
X189500Y-234417D02*
X204417Y-219500D01*
X225583Y-219500D01*
X240500Y-234417D01*
X240500Y-255583D01*
X225583Y-270500D01*
X204417Y-270500D01*
X189500Y-255583D01*
X189500Y-234417D01*
G37*
G36*
X779500Y-44417D02*
X794417Y-29500D01*
X815583Y-29500D01*
X830500Y-44417D01*
X830500Y-65583D01*
X815583Y-80500D01*
X794417Y-80500D01*
X779500Y-65583D01*
X779500Y-44417D01*
G37*
X805000Y-245000D02*
G54D10*
D03*
G36*
X497000Y-134842D02*
X514842Y-117000D01*
X540158Y-117000D01*
X558000Y-134842D01*
X558000Y-160158D01*
X540158Y-178000D01*
X514842Y-178000D01*
X497000Y-160158D01*
X497000Y-134842D01*
G37*
G36*
X-3000Y-134842D02*
X14842Y-117000D01*
X40158Y-117000D01*
X58000Y-134842D01*
X58000Y-160158D01*
X40158Y-178000D01*
X14842Y-178000D01*
X-3000Y-160158D01*
X-3000Y-134842D01*
G37*
X91200Y-138800D02*
G54D11*
D03*
X91300Y-106300D02*
G54D11*
D03*
X153700Y-138800D02*
G54D11*
D03*
X153800Y-106300D02*
G54D11*
D03*
X186200Y-138800D02*
G54D11*
D03*
X186300Y-106300D02*
G54D11*
D03*
X248700Y-138800D02*
G54D11*
D03*
X248800Y-106300D02*
G54D11*
D03*
X138750Y-162600D02*
G54D12*
D03*
X106250Y-162500D02*
G54D12*
D03*
X233750Y-162600D02*
G54D12*
D03*
X201250Y-162500D02*
G54D12*
D03*
G36*
X102895Y-237000D02*
X110500Y-244605D01*
X110500Y-255395D01*
X102895Y-263000D01*
X92105Y-263000D01*
X84500Y-255395D01*
X84500Y-244605D01*
X92105Y-237000D01*
X102895Y-237000D01*
G37*
G36*
X82895Y-217000D02*
X90500Y-224605D01*
X90500Y-235395D01*
X82895Y-243000D01*
X72105Y-243000D01*
X64500Y-235395D01*
X64500Y-224605D01*
X72105Y-217000D01*
X82895Y-217000D01*
G37*
G36*
X82895Y-257000D02*
X90500Y-264605D01*
X90500Y-275395D01*
X82895Y-283000D01*
X72105Y-283000D01*
X64500Y-275395D01*
X64500Y-264605D01*
X72105Y-257000D01*
X82895Y-257000D01*
G37*
G36*
X157895Y-237000D02*
X165500Y-244605D01*
X165500Y-255395D01*
X157895Y-263000D01*
X147105Y-263000D01*
X139500Y-255395D01*
X139500Y-244605D01*
X147105Y-237000D01*
X157895Y-237000D01*
G37*
G36*
X137895Y-217000D02*
X145500Y-224605D01*
X145500Y-235395D01*
X137895Y-243000D01*
X127105Y-243000D01*
X119500Y-235395D01*
X119500Y-224605D01*
X127105Y-217000D01*
X137895Y-217000D01*
G37*
G36*
X137895Y-257000D02*
X145500Y-264605D01*
X145500Y-275395D01*
X137895Y-283000D01*
X127105Y-283000D01*
X119500Y-275395D01*
X119500Y-264605D01*
X127105Y-257000D01*
X137895Y-257000D01*
G37*
X278700Y-138800D02*
G54D11*
D03*
X278800Y-106300D02*
G54D11*
D03*
G36*
X315395Y-237000D02*
X323000Y-244605D01*
X323000Y-255395D01*
X315395Y-263000D01*
X304605Y-263000D01*
X297000Y-255395D01*
X297000Y-244605D01*
X304605Y-237000D01*
X315395Y-237000D01*
G37*
G36*
X295395Y-217000D02*
X303000Y-224605D01*
X303000Y-235395D01*
X295395Y-243000D01*
X284605Y-243000D01*
X277000Y-235395D01*
X277000Y-224605D01*
X284605Y-217000D01*
X295395Y-217000D01*
G37*
G36*
X295395Y-257000D02*
X303000Y-264605D01*
X303000Y-275395D01*
X295395Y-283000D01*
X284605Y-283000D01*
X277000Y-275395D01*
X277000Y-264605D01*
X284605Y-257000D01*
X295395Y-257000D01*
G37*
X308700Y-138800D02*
G54D11*
D03*
X308800Y-106300D02*
G54D11*
D03*
X351500Y-231000D02*
G54D13*
D03*
X351500Y-269000D02*
G54D13*
D03*
X351500Y-166000D02*
G54D13*
D03*
X351500Y-204000D02*
G54D13*
D03*
G36*
X424805Y-275700D02*
X417200Y-268095D01*
X417200Y-257305D01*
X424805Y-249700D01*
X435595Y-249700D01*
X443200Y-257305D01*
X443200Y-268095D01*
X435595Y-275700D01*
X424805Y-275700D01*
G37*
G36*
X424805Y-250300D02*
X417200Y-242695D01*
X417200Y-231905D01*
X424805Y-224300D01*
X435595Y-224300D01*
X443200Y-231905D01*
X443200Y-242695D01*
X435595Y-250300D01*
X424805Y-250300D01*
G37*
G36*
X528618Y-65550D02*
X519550Y-56482D01*
X519550Y-43618D01*
X528618Y-34550D01*
X541482Y-34550D01*
X550550Y-43618D01*
X550550Y-56482D01*
X541482Y-65550D01*
X528618Y-65550D01*
G37*
G36*
X598618Y-65550D02*
X589550Y-56482D01*
X589550Y-43618D01*
X598618Y-34550D01*
X611482Y-34550D01*
X620550Y-43618D01*
X620550Y-56482D01*
X611482Y-65550D01*
X598618Y-65550D01*
G37*
G36*
X542777Y-36550D02*
X536050Y-29823D01*
X536050Y-20277D01*
X542777Y-13550D01*
X552323Y-13550D01*
X559050Y-20277D01*
X559050Y-29823D01*
X552323Y-36550D01*
X542777Y-36550D01*
G37*
G36*
X587777Y-36550D02*
X581050Y-29823D01*
X581050Y-20277D01*
X587777Y-13550D01*
X597323Y-13550D01*
X604050Y-20277D01*
X604050Y-29823D01*
X597323Y-36550D01*
X587777Y-36550D01*
G37*
G36*
X587000Y-132105D02*
X594605Y-124500D01*
X605395Y-124500D01*
X613000Y-132105D01*
X613000Y-142895D01*
X605395Y-150500D01*
X594605Y-150500D01*
X587000Y-142895D01*
X587000Y-132105D01*
G37*
G36*
X587000Y-157105D02*
X594605Y-149500D01*
X605395Y-149500D01*
X613000Y-157105D01*
X613000Y-167895D01*
X605395Y-175500D01*
X594605Y-175500D01*
X587000Y-167895D01*
X587000Y-157105D01*
G37*
G36*
X296495Y-28825D02*
X304100Y-36430D01*
X304100Y-47220D01*
X296495Y-54825D01*
X285705Y-54825D01*
X278100Y-47220D01*
X278100Y-36430D01*
X285705Y-28825D01*
X296495Y-28825D01*
G37*
G36*
X276495Y-8825D02*
X284100Y-16430D01*
X284100Y-27220D01*
X276495Y-34825D01*
X265705Y-34825D01*
X258100Y-27220D01*
X258100Y-16430D01*
X265705Y-8825D01*
X276495Y-8825D01*
G37*
G36*
X276495Y-48825D02*
X284100Y-56430D01*
X284100Y-67220D01*
X276495Y-74825D01*
X265705Y-74825D01*
X258100Y-67220D01*
X258100Y-56430D01*
X265705Y-48825D01*
X276495Y-48825D01*
G37*
X333700Y-122800D02*
G54D11*
D03*
X333800Y-90300D02*
G54D11*
D03*
G36*
X87600Y-35465D02*
X95790Y-27275D01*
X107410Y-27275D01*
X115600Y-35465D01*
X115600Y-47085D01*
X107410Y-55275D01*
X95790Y-55275D01*
X87600Y-47085D01*
X87600Y-35465D01*
G37*
G36*
X138400Y-35465D02*
X146590Y-27275D01*
X158210Y-27275D01*
X166400Y-35465D01*
X166400Y-47085D01*
X158210Y-55275D01*
X146590Y-55275D01*
X138400Y-47085D01*
X138400Y-35465D01*
G37*
X358644Y-21538D02*
G54D13*
D03*
X358644Y-59538D02*
G54D13*
D03*
G36*
X410518Y-66150D02*
X402912Y-58545D01*
X402912Y-47755D01*
X410518Y-40150D01*
X421308Y-40150D01*
X428912Y-47755D01*
X428912Y-58545D01*
X421308Y-66150D01*
X410518Y-66150D01*
G37*
G36*
X410518Y-40750D02*
X402912Y-33145D01*
X402912Y-22355D01*
X410518Y-14750D01*
X421308Y-14750D01*
X428912Y-22355D01*
X428912Y-33145D01*
X421308Y-40750D01*
X410518Y-40750D01*
G37*
G36*
X789862Y-122362D02*
X798638Y-113588D01*
X811088Y-113588D01*
X819862Y-122362D01*
X819862Y-134812D01*
X811088Y-143588D01*
X798638Y-143588D01*
X789862Y-134812D01*
X789862Y-122362D01*
G37*
G36*
X789862Y-157362D02*
X798638Y-148588D01*
X811088Y-148588D01*
X819862Y-157362D01*
X819862Y-169812D01*
X811088Y-178588D01*
X798638Y-178588D01*
X789862Y-169812D01*
X789862Y-157362D01*
G37*
G36*
X51419Y-16338D02*
X59024Y-23944D01*
X59024Y-34734D01*
X51419Y-42338D01*
X40629Y-42338D01*
X33024Y-34734D01*
X33024Y-23944D01*
X40629Y-16338D01*
X51419Y-16338D01*
G37*
G36*
X51419Y-41738D02*
X59024Y-49344D01*
X59024Y-60134D01*
X51419Y-67738D01*
X40629Y-67738D01*
X33024Y-60134D01*
X33024Y-49344D01*
X40629Y-41738D01*
X51419Y-41738D01*
G37*
M02*
