%FSLAX34Y34*%
%MOMM*%
%LNCOPPER_BOTTOM*%
G71*
G01*
%ADD10C,7.000*%
%ADD11R,1.800X1.300*%
%ADD12R,1.300X1.800*%
%ADD13C,1.000*%
%ADD14C,0.476*%
%ADD15C,0.500*%
%ADD16R,3.000X1.500*%
%ADD17C,0.318*%
%ADD18C,0.200*%
%LPD*%
X215000Y-55000D02*
G54D10*
D03*
G36*
X192500Y-235662D02*
X205662Y-222500D01*
X224338Y-222500D01*
X237500Y-235662D01*
X237500Y-254338D01*
X224338Y-267500D01*
X205662Y-267500D01*
X192500Y-254338D01*
X192500Y-235662D01*
G37*
G36*
X782500Y-45662D02*
X795662Y-32500D01*
X814338Y-32500D01*
X827500Y-45662D01*
X827500Y-64338D01*
X814338Y-77500D01*
X795662Y-77500D01*
X782500Y-64338D01*
X782500Y-45662D01*
G37*
X805000Y-245000D02*
G54D10*
D03*
G36*
X500000Y-136087D02*
X516087Y-120000D01*
X538913Y-120000D01*
X555000Y-136087D01*
X555000Y-158913D01*
X538913Y-175000D01*
X516087Y-175000D01*
X500000Y-158913D01*
X500000Y-136087D01*
G37*
G36*
X0Y-136087D02*
X16087Y-120000D01*
X38913Y-120000D01*
X55000Y-136087D01*
X55000Y-158913D01*
X38913Y-175000D01*
X16087Y-175000D01*
X0Y-158913D01*
X0Y-136087D01*
G37*
X91200Y-138800D02*
G54D11*
D03*
X91300Y-106300D02*
G54D11*
D03*
X153700Y-138800D02*
G54D11*
D03*
X153800Y-106300D02*
G54D11*
D03*
X186200Y-138800D02*
G54D11*
D03*
X186300Y-106300D02*
G54D11*
D03*
X248700Y-138800D02*
G54D11*
D03*
X248800Y-106300D02*
G54D11*
D03*
X138750Y-162600D02*
G54D12*
D03*
X106250Y-162500D02*
G54D12*
D03*
X233750Y-162600D02*
G54D12*
D03*
X201250Y-162500D02*
G54D12*
D03*
G36*
X101650Y-240000D02*
X107500Y-245850D01*
X107500Y-254150D01*
X101650Y-260000D01*
X93350Y-260000D01*
X87500Y-254150D01*
X87500Y-245850D01*
X93350Y-240000D01*
X101650Y-240000D01*
G37*
G36*
X81650Y-220000D02*
X87500Y-225850D01*
X87500Y-234150D01*
X81650Y-240000D01*
X73350Y-240000D01*
X67500Y-234150D01*
X67500Y-225850D01*
X73350Y-220000D01*
X81650Y-220000D01*
G37*
G36*
X81650Y-260000D02*
X87500Y-265850D01*
X87500Y-274150D01*
X81650Y-280000D01*
X73350Y-280000D01*
X67500Y-274150D01*
X67500Y-265850D01*
X73350Y-260000D01*
X81650Y-260000D01*
G37*
G36*
X156650Y-240000D02*
X162500Y-245850D01*
X162500Y-254150D01*
X156650Y-260000D01*
X148350Y-260000D01*
X142500Y-254150D01*
X142500Y-245850D01*
X148350Y-240000D01*
X156650Y-240000D01*
G37*
G36*
X136650Y-220000D02*
X142500Y-225850D01*
X142500Y-234150D01*
X136650Y-240000D01*
X128350Y-240000D01*
X122500Y-234150D01*
X122500Y-225850D01*
X128350Y-220000D01*
X136650Y-220000D01*
G37*
G36*
X136650Y-260000D02*
X142500Y-265850D01*
X142500Y-274150D01*
X136650Y-280000D01*
X128350Y-280000D01*
X122500Y-274150D01*
X122500Y-265850D01*
X128350Y-260000D01*
X136650Y-260000D01*
G37*
G54D13*
X138750Y-162600D02*
X147400Y-162600D01*
X155000Y-155000D01*
X155000Y-140100D01*
X153700Y-138800D01*
G54D13*
X106250Y-162500D02*
X97500Y-162500D01*
X90000Y-155000D01*
X90000Y-140000D01*
X91200Y-138800D01*
G54D13*
X202450Y-161300D02*
X193700Y-161300D01*
X186200Y-153800D01*
X186200Y-138800D01*
X187400Y-137600D01*
G54D13*
X233750Y-162600D02*
X242400Y-162600D01*
X250000Y-155000D01*
X250000Y-140100D01*
X248700Y-138800D01*
G54D13*
X91300Y-106300D02*
X153800Y-106300D01*
X186300Y-106300D01*
X248800Y-106300D01*
G54D13*
X106250Y-162500D02*
X87500Y-162500D01*
X77500Y-172500D01*
X77500Y-230000D01*
G54D13*
X132500Y-270000D02*
X77500Y-270000D01*
G54D13*
X152500Y-250000D02*
X125000Y-250000D01*
X112500Y-237500D01*
X112500Y-210000D01*
X137500Y-185000D01*
X137500Y-163850D01*
X138750Y-162600D01*
G54D13*
X27500Y-147500D02*
X27500Y-257500D01*
X40000Y-270000D01*
X77500Y-270000D01*
G54D14*
X58812Y-187708D02*
X42812Y-187708D01*
G54D14*
X507462Y-176508D02*
X491462Y-176508D01*
G54D14*
X499462Y-169842D02*
X499462Y-183175D01*
X278700Y-138800D02*
G54D11*
D03*
X278800Y-106300D02*
G54D11*
D03*
G54D15*
X248700Y-138800D02*
X248700Y-128800D01*
X255000Y-122500D01*
X272572Y-122500D01*
X278696Y-116375D01*
X278696Y-106404D01*
X278800Y-106300D01*
G36*
X314150Y-240000D02*
X320000Y-245850D01*
X320000Y-254150D01*
X314150Y-260000D01*
X305850Y-260000D01*
X300000Y-254150D01*
X300000Y-245850D01*
X305850Y-240000D01*
X314150Y-240000D01*
G37*
G36*
X294150Y-220000D02*
X300000Y-225850D01*
X300000Y-234150D01*
X294150Y-240000D01*
X285850Y-240000D01*
X280000Y-234150D01*
X280000Y-225850D01*
X285850Y-220000D01*
X294150Y-220000D01*
G37*
G36*
X294150Y-260000D02*
X300000Y-265850D01*
X300000Y-274150D01*
X294150Y-280000D01*
X285850Y-280000D01*
X280000Y-274150D01*
X280000Y-265850D01*
X285850Y-260000D01*
X294150Y-260000D01*
G37*
X308700Y-138800D02*
G54D11*
D03*
X308800Y-106300D02*
G54D11*
D03*
G54D13*
X248800Y-106300D02*
X248800Y-93700D01*
X257500Y-85000D01*
X301783Y-85000D01*
X309091Y-92308D01*
X309091Y-106009D01*
X308800Y-106300D01*
G54D13*
X310000Y-250000D02*
X275000Y-250000D01*
X265000Y-240000D01*
X265000Y-170000D01*
X277500Y-157500D01*
X277500Y-140000D01*
X278700Y-138800D01*
G54D13*
X290000Y-230000D02*
X290000Y-179231D01*
X308741Y-160490D01*
X308741Y-138841D01*
X308700Y-138800D01*
G54D13*
X132500Y-270000D02*
X142500Y-270000D01*
X157500Y-285000D01*
X275000Y-285000D01*
X290000Y-270000D01*
X351500Y-231000D02*
G54D16*
D03*
X351500Y-269000D02*
G54D16*
D03*
G54D13*
X290000Y-270000D02*
X350500Y-270000D01*
X351500Y-269000D01*
G54D13*
X290000Y-230000D02*
X350500Y-230000D01*
X351500Y-231000D01*
X351500Y-166000D02*
G54D16*
D03*
X351500Y-204000D02*
G54D16*
D03*
G54D13*
X351500Y-231000D02*
X351500Y-204000D01*
G54D13*
X527500Y-147500D02*
X360000Y-147500D01*
X350000Y-157500D01*
X350000Y-164500D01*
X351500Y-166000D01*
G36*
X426050Y-272700D02*
X420200Y-266850D01*
X420200Y-258550D01*
X426050Y-252700D01*
X434350Y-252700D01*
X440200Y-258550D01*
X440200Y-266850D01*
X434350Y-272700D01*
X426050Y-272700D01*
G37*
G36*
X426050Y-247300D02*
X420200Y-241450D01*
X420200Y-233150D01*
X426050Y-227300D01*
X434350Y-227300D01*
X440200Y-233150D01*
X440200Y-241450D01*
X434350Y-247300D01*
X426050Y-247300D01*
G37*
G54D13*
X430200Y-237300D02*
X389800Y-237300D01*
X382500Y-230000D01*
X352500Y-230000D01*
X351500Y-231000D01*
G36*
X529862Y-62550D02*
X522550Y-55238D01*
X522550Y-44862D01*
X529862Y-37550D01*
X540238Y-37550D01*
X547550Y-44862D01*
X547550Y-55238D01*
X540238Y-62550D01*
X529862Y-62550D01*
G37*
G36*
X599862Y-62550D02*
X592550Y-55238D01*
X592550Y-44862D01*
X599862Y-37550D01*
X610238Y-37550D01*
X617550Y-44862D01*
X617550Y-55238D01*
X610238Y-62550D01*
X599862Y-62550D01*
G37*
G36*
X544022Y-33550D02*
X539050Y-28578D01*
X539050Y-21522D01*
X544022Y-16550D01*
X551078Y-16550D01*
X556050Y-21522D01*
X556050Y-28578D01*
X551078Y-33550D01*
X544022Y-33550D01*
G37*
G36*
X589022Y-33550D02*
X584050Y-28578D01*
X584050Y-21522D01*
X589022Y-16550D01*
X596078Y-16550D01*
X601050Y-21522D01*
X601050Y-28578D01*
X596078Y-33550D01*
X589022Y-33550D01*
G37*
G54D13*
X132500Y-230000D02*
X160000Y-230000D01*
X167500Y-222500D01*
X167500Y-195000D01*
X177500Y-185000D01*
X225000Y-185000D01*
X232500Y-177500D01*
X232500Y-163850D01*
X233750Y-162600D01*
G54D15*
X97500Y-250000D02*
X97500Y-202500D01*
X122500Y-177500D01*
X122500Y-130000D01*
X130000Y-122500D01*
X177872Y-122500D01*
X186157Y-130785D01*
X186157Y-138757D01*
X186200Y-138800D01*
G54D17*
X619500Y-214375D02*
X619500Y-196597D01*
G54D17*
X608833Y-214375D02*
X608833Y-196597D01*
G54D17*
X619500Y-205486D02*
X608833Y-205486D01*
G54D17*
X602611Y-214375D02*
X602611Y-196597D01*
X595944Y-196597D01*
X593278Y-197708D01*
X591944Y-199931D01*
X591944Y-202153D01*
X593278Y-204375D01*
X595944Y-205486D01*
X593278Y-206597D01*
X591944Y-208819D01*
X591944Y-211042D01*
X593278Y-213264D01*
X595944Y-214375D01*
X602611Y-214375D01*
G54D17*
X602611Y-205486D02*
X595944Y-205486D01*
G54D17*
X577722Y-211708D02*
X577722Y-207264D01*
X579055Y-205042D01*
X581722Y-204375D01*
X584389Y-205042D01*
X585722Y-207264D01*
X585722Y-211708D01*
X584389Y-213931D01*
X581722Y-214375D01*
X579055Y-213931D01*
X577722Y-211708D01*
G54D17*
X571500Y-213264D02*
X568833Y-214375D01*
X566167Y-214375D01*
X563500Y-213264D01*
X563500Y-211042D01*
X564833Y-209931D01*
X570167Y-208819D01*
X571500Y-207708D01*
X571500Y-205486D01*
X568833Y-204375D01*
X566167Y-204375D01*
X563500Y-205486D01*
G54D17*
X549278Y-213264D02*
X551411Y-214375D01*
X554078Y-214375D01*
X556745Y-213264D01*
X557278Y-211042D01*
X557278Y-207264D01*
X555945Y-205042D01*
X553278Y-204375D01*
X550611Y-205042D01*
X549278Y-206597D01*
X549278Y-208819D01*
X557278Y-208819D01*
G54D17*
X525900Y-214375D02*
X536567Y-214375D01*
X536567Y-213264D01*
X535234Y-211042D01*
X527234Y-204375D01*
X525900Y-202153D01*
X525900Y-199931D01*
X527234Y-197708D01*
X529900Y-196597D01*
X532567Y-196597D01*
X535234Y-197708D01*
X536567Y-199931D01*
G54D17*
X509011Y-199931D02*
X509011Y-211042D01*
X510345Y-213264D01*
X513011Y-214375D01*
X515678Y-214375D01*
X518345Y-213264D01*
X519678Y-211042D01*
X519678Y-199931D01*
X518345Y-197708D01*
X515678Y-196597D01*
X513011Y-196597D01*
X510345Y-197708D01*
X509011Y-199931D01*
G54D17*
X502789Y-203264D02*
X496122Y-196597D01*
X496122Y-214375D01*
G54D17*
X483233Y-205486D02*
X485900Y-205486D01*
X488567Y-204375D01*
X489900Y-202153D01*
X489900Y-199931D01*
X488567Y-197708D01*
X485900Y-196597D01*
X483233Y-196597D01*
X480567Y-197708D01*
X479233Y-199931D01*
X479233Y-202153D01*
X480567Y-204375D01*
X483233Y-205486D01*
X480567Y-206597D01*
X479233Y-208819D01*
X479233Y-211042D01*
X480567Y-213264D01*
X483233Y-214375D01*
X485900Y-214375D01*
X488567Y-213264D01*
X489900Y-211042D01*
X489900Y-208819D01*
X488567Y-206597D01*
X485900Y-205486D01*
G54D17*
X727600Y-279692D02*
X726267Y-281914D01*
X723600Y-283025D01*
X720933Y-283025D01*
X718267Y-281914D01*
X716933Y-279692D01*
X716933Y-277469D01*
X718267Y-275247D01*
X720933Y-274136D01*
X723600Y-274136D01*
X726267Y-273025D01*
X727600Y-270803D01*
X727600Y-268581D01*
X726267Y-266358D01*
X723600Y-265247D01*
X720933Y-265247D01*
X718267Y-266358D01*
X716933Y-268581D01*
G54D17*
X710711Y-283025D02*
X710711Y-273025D01*
G54D17*
X710711Y-269692D02*
X710711Y-269692D01*
G54D17*
X704489Y-286358D02*
X701822Y-287469D01*
X699956Y-287469D01*
X697289Y-286358D01*
X696489Y-284136D01*
X696489Y-273025D01*
G54D17*
X696489Y-275914D02*
X697822Y-273692D01*
X700489Y-273025D01*
X703156Y-273692D01*
X704489Y-275914D01*
X704489Y-280358D01*
X703156Y-282581D01*
X700489Y-283025D01*
X697822Y-282581D01*
X696489Y-280358D01*
G54D17*
X690267Y-283025D02*
X690267Y-273025D01*
G54D17*
X690267Y-275247D02*
X688934Y-273692D01*
X686267Y-273025D01*
X683600Y-273692D01*
X682267Y-275247D01*
X682267Y-283025D01*
G54D17*
X676045Y-274136D02*
X673378Y-273025D01*
X670178Y-273025D01*
X668045Y-275247D01*
X668045Y-283025D01*
G54D17*
X668045Y-279692D02*
X669378Y-277469D01*
X672045Y-277025D01*
X674712Y-277469D01*
X676045Y-279692D01*
X675512Y-281914D01*
X673378Y-283025D01*
X672045Y-283025D01*
X671512Y-283025D01*
X669378Y-281914D01*
X668045Y-279692D01*
G54D17*
X661823Y-283025D02*
X661823Y-265247D01*
G54D17*
X655601Y-275247D02*
X644934Y-275247D01*
G54D17*
X638712Y-283025D02*
X638712Y-265247D01*
G54D17*
X632490Y-283025D02*
X632490Y-273025D01*
G54D17*
X632490Y-275247D02*
X631157Y-273692D01*
X628490Y-273025D01*
X625823Y-273692D01*
X624490Y-275247D01*
X624490Y-283025D01*
G54D17*
X615601Y-269692D02*
X615601Y-269692D01*
G54D17*
X618268Y-287469D02*
X616935Y-287469D01*
X615601Y-285692D01*
X615601Y-273025D01*
G54D17*
X601379Y-281914D02*
X603512Y-283025D01*
X606179Y-283025D01*
X608846Y-281914D01*
X609379Y-279692D01*
X609379Y-275914D01*
X608046Y-273692D01*
X605379Y-273025D01*
X602712Y-273692D01*
X601379Y-275247D01*
X601379Y-277469D01*
X609379Y-277469D01*
G54D17*
X588490Y-273692D02*
X591157Y-273025D01*
X593824Y-273692D01*
X595157Y-275914D01*
X595157Y-280358D01*
X593824Y-282581D01*
X591157Y-283025D01*
X588490Y-282581D01*
G54D17*
X579601Y-265247D02*
X579601Y-281914D01*
X578268Y-283025D01*
X576935Y-282581D01*
G54D17*
X582268Y-273025D02*
X576935Y-273025D01*
G54D17*
X562713Y-280358D02*
X562713Y-275914D01*
X564046Y-273692D01*
X566713Y-273025D01*
X569380Y-273692D01*
X570713Y-275914D01*
X570713Y-280358D01*
X569380Y-282581D01*
X566713Y-283025D01*
X564046Y-282581D01*
X562713Y-280358D01*
G54D17*
X556491Y-283025D02*
X556491Y-273025D01*
G54D17*
X556491Y-275247D02*
X553824Y-273025D01*
X551158Y-273025D01*
G54D13*
X308800Y-106300D02*
X551200Y-106300D01*
X562500Y-95000D01*
X562500Y-40000D01*
X547550Y-25050D01*
G54D13*
X527500Y-147500D02*
X567500Y-147500D01*
X577500Y-137500D01*
X577500Y-40100D01*
X592550Y-25050D01*
G36*
X590000Y-133350D02*
X595850Y-127500D01*
X604150Y-127500D01*
X610000Y-133350D01*
X610000Y-141650D01*
X604150Y-147500D01*
X595850Y-147500D01*
X590000Y-141650D01*
X590000Y-133350D01*
G37*
G36*
X590000Y-158350D02*
X595850Y-152500D01*
X604150Y-152500D01*
X610000Y-158350D01*
X610000Y-166650D01*
X604150Y-172500D01*
X595850Y-172500D01*
X590000Y-166650D01*
X590000Y-158350D01*
G37*
G36*
X295250Y-31825D02*
X301100Y-37675D01*
X301100Y-45975D01*
X295250Y-51825D01*
X286950Y-51825D01*
X281100Y-45975D01*
X281100Y-37675D01*
X286950Y-31825D01*
X295250Y-31825D01*
G37*
G36*
X275250Y-11825D02*
X281100Y-17675D01*
X281100Y-25975D01*
X275250Y-31825D01*
X266950Y-31825D01*
X261100Y-25975D01*
X261100Y-17675D01*
X266950Y-11825D01*
X275250Y-11825D01*
G37*
G36*
X275250Y-51825D02*
X281100Y-57675D01*
X281100Y-65975D01*
X275250Y-71825D01*
X266950Y-71825D01*
X261100Y-65975D01*
X261100Y-57675D01*
X266950Y-51825D01*
X275250Y-51825D01*
G37*
X333700Y-122800D02*
G54D11*
D03*
X333800Y-90300D02*
G54D11*
D03*
G54D13*
X308700Y-138800D02*
X326200Y-138800D01*
X332500Y-132500D01*
X332500Y-124000D01*
X333700Y-122800D01*
G36*
X90600Y-36710D02*
X97035Y-30275D01*
X106165Y-30275D01*
X112600Y-36710D01*
X112600Y-45840D01*
X106165Y-52275D01*
X97035Y-52275D01*
X90600Y-45840D01*
X90600Y-36710D01*
G37*
G36*
X141400Y-36710D02*
X147835Y-30275D01*
X156965Y-30275D01*
X163400Y-36710D01*
X163400Y-45840D01*
X156965Y-52275D01*
X147835Y-52275D01*
X141400Y-45840D01*
X141400Y-36710D01*
G37*
X358644Y-21538D02*
G54D16*
D03*
X358644Y-59538D02*
G54D16*
D03*
G36*
X411762Y-63150D02*
X405912Y-57300D01*
X405912Y-49000D01*
X411762Y-43150D01*
X420062Y-43150D01*
X425912Y-49000D01*
X425912Y-57300D01*
X420062Y-63150D01*
X411762Y-63150D01*
G37*
G36*
X411762Y-37750D02*
X405912Y-31900D01*
X405912Y-23600D01*
X411762Y-17750D01*
X420062Y-17750D01*
X425912Y-23600D01*
X425912Y-31900D01*
X420062Y-37750D01*
X411762Y-37750D01*
G37*
G36*
X792862Y-123608D02*
X799882Y-116588D01*
X809842Y-116588D01*
X816862Y-123608D01*
X816862Y-133568D01*
X809842Y-140588D01*
X799882Y-140588D01*
X792862Y-133568D01*
X792862Y-123608D01*
G37*
G36*
X792862Y-158608D02*
X799882Y-151588D01*
X809842Y-151588D01*
X816862Y-158608D01*
X816862Y-168568D01*
X809842Y-175588D01*
X799882Y-175588D01*
X792862Y-168568D01*
X792862Y-158608D01*
G37*
G54D13*
X360000Y-21825D02*
X248838Y-21825D01*
X238125Y-11112D01*
X163512Y-11112D01*
X152400Y-22225D01*
X152400Y-41275D01*
G54D13*
X600000Y-137500D02*
X600000Y-93738D01*
X604838Y-88900D01*
X604838Y-50262D01*
X605050Y-50050D01*
G54D13*
X547550Y-25050D02*
X547550Y-12838D01*
X552450Y-7938D01*
X623888Y-7938D01*
X630238Y-14288D01*
X630238Y-152400D01*
X619125Y-163512D01*
X601012Y-163512D01*
X600000Y-162500D01*
G54D13*
X430200Y-262700D02*
X454850Y-262700D01*
X481012Y-236538D01*
X633412Y-236538D01*
X650875Y-219075D01*
X650875Y-139700D01*
X661988Y-128588D01*
X804862Y-128588D01*
G54D13*
X351500Y-269000D02*
X391238Y-269000D01*
X406400Y-284162D01*
X461962Y-284162D01*
X492125Y-254000D01*
X646112Y-254000D01*
X669925Y-230188D01*
X669925Y-176212D01*
X682625Y-163512D01*
X804788Y-163512D01*
X804862Y-163588D01*
G36*
X50174Y-19338D02*
X56024Y-25188D01*
X56024Y-33488D01*
X50174Y-39338D01*
X41874Y-39338D01*
X36024Y-33488D01*
X36024Y-25188D01*
X41874Y-19338D01*
X50174Y-19338D01*
G37*
G36*
X50174Y-44738D02*
X56024Y-50588D01*
X56024Y-58888D01*
X50174Y-64738D01*
X41874Y-64738D01*
X36024Y-58888D01*
X36024Y-50588D01*
X41874Y-44738D01*
X50174Y-44738D01*
G37*
G54D13*
X46024Y-29338D02*
X89664Y-29338D01*
X101600Y-41275D01*
G54D13*
X27500Y-147500D02*
X27500Y-71950D01*
X20638Y-65088D01*
X20638Y-38100D01*
X30162Y-28575D01*
X45260Y-28575D01*
X46024Y-29338D01*
G54D13*
X333800Y-90300D02*
X333800Y-51225D01*
X323850Y-41275D01*
X291650Y-41275D01*
X291100Y-41825D01*
G54D13*
X271100Y-61825D02*
X271100Y-71400D01*
X257500Y-85000D01*
G54D13*
X358644Y-59538D02*
X384962Y-59538D01*
X392112Y-52388D01*
X415150Y-52388D01*
X415912Y-53150D01*
G54D13*
X547550Y-25050D02*
X451200Y-25050D01*
X449262Y-26988D01*
X416675Y-26988D01*
X415912Y-27750D01*
G54D13*
X535050Y-50050D02*
X453188Y-50050D01*
X450850Y-52388D01*
X416675Y-52388D01*
X415912Y-53150D01*
G54D18*
X801688Y-98425D02*
X808038Y-98425D01*
X808038Y-104775D01*
X814388Y-104775D01*
G54D18*
X801688Y-98425D02*
X801688Y-104775D01*
X795338Y-104775D01*
G54D13*
X91300Y-106300D02*
X53912Y-106300D01*
X46038Y-98425D01*
X46024Y-54738D01*
G54D18*
X804862Y-187325D02*
X804862Y-193675D01*
X808038Y-193675D01*
G54D18*
X804862Y-193675D02*
X801688Y-193675D01*
M02*
