; Drill file
; Format: 2.4 (00.0000)
M48
INCH
T01C0.0315
T02C0.0394
T03C0.0472
T04C0.0512
T05C0.0984
T06C0.2362
%
G05
G90
T01
X003050Y-010630
X003840Y-009840
X003050Y-009060
X005220Y-009060
X006000Y-009840
X005220Y-010630
X011420Y-010630
X012200Y-009840
X011420Y-009060
X016940Y-009340
X016940Y-010340
X023620Y-006400
X023620Y-005410
X016370Y-002090
X016370Y-001090
X011460Y-001650
X010670Y-000860
X010670Y-002430
X001810Y-002160
X001810Y-001160
T02
X004000Y-001630
X006000Y-001630
X021560Y-000990
X023330Y-000990
X031690Y-005060
X031690Y-006440
T03
X001080Y-005810
X020770Y-005810
T04
X021060Y-001970
X023820Y-001970
T05
X008460Y-009650
X031690Y-002170
T06
X008460Y-002170
X031690Y-009650
M30
